<svg width="308" height="193" viewBox="0 0 308 193" fill="none" xmlns="http://www.w3.org/2000/svg">
<g filter="url(#filter0_d_54_11270)">
<g clip-path="url(#clip0_54_11270)">
<g clip-path="url(#clip1_54_11270)">
<rect width="292.5" height="850.438" transform="translate(7.75 -181.375)" fill="#FAFAFA"/>
<rect x="24" y="-58" width="260" height="236.062" rx="3.25" fill="white"/>
<path d="M42.4714 2.91137H39.3774V6.3125H37.9214V-2.00263H43.0629V-0.660375H39.3774V1.60325H42.4714V2.91137ZM47.6369 0.69325H49.0246V6.3125H47.7392L47.6369 5.56175C47.2956 6.09637 46.5676 6.46038 45.8169 6.46038C44.5201 6.46038 43.758 5.5845 43.758 4.20812V0.69325H45.1457V3.719C45.1457 4.78825 45.5666 5.2205 46.3401 5.2205C47.216 5.2205 47.6369 4.70862 47.6369 3.63937V0.69325ZM51.8571 6.3125H50.4807V-2.1505H51.8571V6.3125ZM54.7119 6.3125H53.3356V-2.1505H54.7119V6.3125ZM60.8716 6.3125H59.4383V-2.00263H60.883L64.7846 3.88962V-2.00263H66.2178V6.3125H64.7846L60.8716 0.42025V6.3125ZM69.5258 6.46038C68.3315 6.46038 67.6035 5.7665 67.6035 4.70862C67.6035 3.6735 68.3542 3.02512 69.6851 2.92275L71.3686 2.79762V2.6725C71.3686 1.91037 70.9136 1.60325 70.2083 1.60325C69.3893 1.60325 68.9343 1.9445 68.9343 2.536H67.7513C67.7513 1.31887 68.7523 0.522625 70.2766 0.522625C71.7895 0.522625 72.7222 1.34162 72.7222 2.9V6.3125H71.5051L71.4027 5.48212C71.1638 6.06225 70.4017 6.46038 69.5258 6.46038ZM69.9808 5.41387C70.834 5.41387 71.38 4.902 71.38 4.0375V3.74175L70.2083 3.83275C69.3438 3.91237 69.014 4.19675 69.014 4.65175C69.014 5.16362 69.3552 5.41387 69.9808 5.41387ZM75.4733 6.3125H74.0855V0.69325H75.3595L75.4733 1.353C75.7576 0.886625 76.3264 0.522625 77.134 0.522625C77.9871 0.522625 78.5786 0.9435 78.8744 1.59187C79.1588 0.9435 79.8185 0.522625 80.6716 0.522625C82.0366 0.522625 82.7874 1.34162 82.7874 2.63837V6.3125H81.411V3.00237C81.411 2.19475 80.9788 1.77387 80.319 1.77387C79.6479 1.77387 79.136 2.20612 79.136 3.1275V6.3125H77.7483V2.991C77.7483 2.20612 77.3274 1.78525 76.6676 1.78525C76.0079 1.78525 75.4733 2.2175 75.4733 3.1275V6.3125ZM86.6636 6.46038C84.9915 6.46038 83.8199 5.24325 83.8199 3.50287C83.8199 1.73975 84.9687 0.522625 86.6181 0.522625C88.3016 0.522625 89.3709 1.64875 89.3709 3.4005V3.82137L85.1394 3.83275C85.2417 4.82237 85.765 5.32287 86.6864 5.32287C87.4485 5.32287 87.949 5.02712 88.1082 4.4925H89.3936C89.1547 5.721 88.131 6.46038 86.6636 6.46038ZM86.6295 1.66012C85.8105 1.66012 85.31 2.10375 85.1735 2.9455H87.9945C87.9945 2.172 87.4599 1.66012 86.6295 1.66012Z" fill="#262626"/>
<path d="M37.2275 22.6966V22.3781H38.0238V22.6966C38.0238 23.6635 38.547 24.3005 39.5366 24.3005C40.5718 24.3005 41.0495 23.6521 41.0495 22.6852V16.793H41.8685V22.708C41.8685 24.1868 40.913 25.074 39.5366 25.074C38.0693 25.074 37.2275 24.1071 37.2275 22.6966ZM43.2308 22.1847C43.2308 20.5012 44.4138 19.2841 46.0291 19.2841C47.6443 19.2841 48.8273 20.5012 48.8273 22.1847C48.8273 23.8569 47.6443 25.074 46.0291 25.074C44.4138 25.074 43.2308 23.8569 43.2308 22.1847ZM44.0271 22.1734C44.0271 23.4701 44.8461 24.3687 46.0291 24.3687C47.2007 24.3687 48.0311 23.4701 48.0311 22.1734C48.0311 20.8994 47.2007 19.9894 46.0291 19.9894C44.8461 19.9894 44.0271 20.8994 44.0271 22.1734ZM50.8675 24.9261H50.0827V16.6451H50.8675V20.3875C51.2202 19.7277 51.8913 19.2841 52.8127 19.2841C54.2573 19.2841 54.9057 20.1827 54.9057 21.5705V24.9375H54.1208V21.7411C54.1208 20.4557 53.5179 20.0007 52.6648 20.0007C51.4818 20.0007 50.8675 20.8766 50.8675 21.9345V24.9261ZM57.2549 24.9375H56.47V19.432H57.1525L57.2663 20.3875C57.6303 19.6822 58.3583 19.2841 59.1545 19.2841C60.6674 19.2841 61.293 20.1827 61.293 21.5705V24.9375H60.5081V21.7411C60.5081 20.4557 59.928 20.0007 59.018 20.0007C57.8919 20.0007 57.2549 20.8197 57.2549 22.0596V24.9375ZM68.6625 24.9375H66.1827V16.793H68.6397C71.0967 16.793 72.7347 18.431 72.7347 20.8652C72.7347 23.2995 71.1081 24.9375 68.6625 24.9375ZM68.6056 17.5437H67.0017V24.1868H68.6284C70.619 24.1868 71.893 22.89 71.893 20.8652C71.893 18.8291 70.619 17.5437 68.6056 17.5437ZM73.6567 22.1847C73.6567 20.5012 74.8397 19.2841 76.455 19.2841C78.0702 19.2841 79.2532 20.5012 79.2532 22.1847C79.2532 23.8569 78.0702 25.074 76.455 25.074C74.8397 25.074 73.6567 23.8569 73.6567 22.1847ZM74.453 22.1734C74.453 23.4701 75.272 24.3687 76.455 24.3687C77.6266 24.3687 78.457 23.4701 78.457 22.1734C78.457 20.8994 77.6266 19.9894 76.455 19.9894C75.272 19.9894 74.453 20.8994 74.453 22.1734ZM82.8177 25.074C81.2025 25.074 80.1218 23.9137 80.1218 22.1847C80.1218 20.4671 81.1911 19.2841 82.7608 19.2841C84.251 19.2841 85.2633 20.342 85.2633 21.9004V22.2871H80.884C80.9408 23.6294 81.6461 24.4029 82.8291 24.4029C83.7277 24.4029 84.3078 24.0161 84.5126 23.2881H85.2633C84.9676 24.4484 84.1145 25.074 82.8177 25.074ZM82.7608 19.9552C81.7257 19.9552 81.0432 20.6377 80.9067 21.7184H84.4785C84.4785 20.6605 83.796 19.9552 82.7608 19.9552Z" fill="#262626"/>
<path d="M43.0856 51.6875H37.9214V43.3724H43.0856V44.7146H39.3774V46.8531H42.6989V48.1385H39.3774V50.3452H43.0856V51.6875ZM45.8472 51.6875H44.4594V46.0682H45.7334L45.8472 46.728C46.1315 46.2616 46.7003 45.8976 47.5079 45.8976C48.361 45.8976 48.9525 46.3185 49.2483 46.9669C49.5327 46.3185 50.1924 45.8976 51.0455 45.8976C52.4105 45.8976 53.1613 46.7166 53.1613 48.0134V51.6875H51.7849V48.3774C51.7849 47.5697 51.3527 47.1489 50.6929 47.1489C50.0218 47.1489 49.5099 47.5811 49.5099 48.5025V51.6875H48.1222V48.366C48.1222 47.5811 47.7013 47.1602 47.0415 47.1602C46.3818 47.1602 45.8472 47.5925 45.8472 48.5025V51.6875ZM56.1958 51.8354C55.0014 51.8354 54.2734 51.1415 54.2734 50.0836C54.2734 49.0485 55.0241 48.4001 56.355 48.2977L58.0385 48.1726V48.0475C58.0385 47.2854 57.5835 46.9782 56.8783 46.9782C56.0593 46.9782 55.6043 47.3195 55.6043 47.911H54.4213C54.4213 46.6939 55.4223 45.8976 56.9465 45.8976C58.4594 45.8976 59.3921 46.7166 59.3921 48.275V51.6875H58.175L58.0726 50.8571C57.8338 51.4372 57.0716 51.8354 56.1958 51.8354ZM56.6508 50.7889C57.5039 50.7889 58.0499 50.277 58.0499 49.4125V49.1167L56.8783 49.2077C56.0138 49.2874 55.6839 49.5717 55.6839 50.0267C55.6839 50.5386 56.0251 50.7889 56.6508 50.7889ZM61.4493 44.9421C60.9716 44.9421 60.5962 44.5667 60.5962 44.1004C60.5962 43.634 60.9716 43.27 61.4493 43.27C61.9043 43.27 62.2797 43.634 62.2797 44.1004C62.2797 44.5667 61.9043 44.9421 61.4493 44.9421ZM60.7554 51.6875V46.0682H62.1432V51.6875H60.7554ZM64.9761 51.6875H63.5997V43.2245H64.9761V51.6875Z" fill="#262626"/>
<path d="M38.2171 63.2941C37.8873 63.2941 37.6256 63.0325 37.6256 62.714C37.6256 62.3955 37.8873 62.1225 38.2171 62.1225C38.5243 62.1225 38.7973 62.3955 38.7973 62.714C38.7973 63.0325 38.5243 63.2941 38.2171 63.2941ZM36.3516 72.724L36.4995 72.0074C36.727 72.0643 36.8635 72.087 37.0341 72.087C37.5801 72.087 37.819 71.7685 37.819 71.0974V64.807H38.6039V71.1429C38.6039 72.1894 38.0579 72.8264 37.091 72.8264C36.7952 72.8264 36.636 72.8036 36.3516 72.724ZM39.8539 67.5597C39.8539 65.8762 41.0369 64.6591 42.6521 64.6591C44.2674 64.6591 45.4504 65.8762 45.4504 67.5597C45.4504 69.2319 44.2674 70.449 42.6521 70.449C41.0369 70.449 39.8539 69.2319 39.8539 67.5597ZM40.6501 67.5484C40.6501 68.8451 41.4691 69.7437 42.6521 69.7437C43.8238 69.7437 44.6541 68.8451 44.6541 67.5484C44.6541 66.2744 43.8238 65.3644 42.6521 65.3644C41.4691 65.3644 40.6501 66.2744 40.6501 67.5484ZM47.4906 70.3011H46.7057V62.0201H47.4906V65.7625C47.8432 65.1027 48.5143 64.6591 49.4357 64.6591C50.8803 64.6591 51.5287 65.5577 51.5287 66.9455V70.3125H50.7438V67.1161C50.7438 65.8307 50.141 65.3757 49.2878 65.3757C48.1048 65.3757 47.4906 66.2516 47.4906 67.3095V70.3011ZM53.8779 70.3125H53.093V64.807H53.7755L53.8893 65.7625C54.2533 65.0572 54.9813 64.6591 55.7775 64.6591C57.2904 64.6591 57.916 65.5577 57.916 66.9455V70.3125H57.1312V67.1161C57.1312 65.8307 56.551 65.3757 55.641 65.3757C54.5149 65.3757 53.8779 66.1947 53.8779 67.4346V70.3125ZM61.6416 70.449C60.0378 70.449 59.0936 69.2205 59.0936 67.5711C59.0936 65.9104 60.0378 64.6591 61.6758 64.6591C62.5858 64.6591 63.3138 65.0572 63.7005 65.8535V62.0201H64.4854V70.3125H63.8029L63.7233 69.1864C63.3365 70.0395 62.563 70.449 61.6416 70.449ZM61.7781 69.7324C62.9839 69.7324 63.6891 68.8224 63.6891 67.5484C63.6891 66.2857 62.9839 65.3644 61.7781 65.3644C60.5838 65.3644 59.8899 66.2857 59.8899 67.5484C59.8899 68.8224 60.5838 69.7324 61.7781 69.7324ZM65.7364 67.5597C65.7364 65.8762 66.9194 64.6591 68.5347 64.6591C70.1499 64.6591 71.3329 65.8762 71.3329 67.5597C71.3329 69.2319 70.1499 70.449 68.5347 70.449C66.9194 70.449 65.7364 69.2319 65.7364 67.5597ZM66.5327 67.5484C66.5327 68.8451 67.3517 69.7437 68.5347 69.7437C69.7063 69.7437 70.5367 68.8451 70.5367 67.5484C70.5367 66.2744 69.7063 65.3644 68.5347 65.3644C67.3517 65.3644 66.5327 66.2744 66.5327 67.5484ZM74.8974 70.449C73.2822 70.449 72.2015 69.2887 72.2015 67.5597C72.2015 65.8421 73.2708 64.6591 74.8405 64.6591C76.3307 64.6591 77.343 65.717 77.343 67.2754V67.6621H72.9637C73.0205 69.0044 73.7258 69.7779 74.9088 69.7779C75.8074 69.7779 76.3875 69.3911 76.5923 68.6631H77.343C77.0473 69.8234 76.1942 70.449 74.8974 70.449ZM74.8405 65.3302C73.8054 65.3302 73.1229 66.0127 72.9864 67.0934H76.5582C76.5582 66.0355 75.8757 65.3302 74.8405 65.3302ZM80.6909 67.81C80.6909 66.9114 81.3848 66.2971 82.6019 66.1947L84.2741 66.0696V65.899C84.2741 65.0231 83.8304 64.5909 82.9204 64.5909C82.0559 64.5909 81.5441 64.989 81.5441 65.6601H80.8616C80.8616 64.6591 81.6919 63.988 82.9546 63.988C84.2399 63.988 85.0021 64.6819 85.0021 65.9104V68.083C85.0021 68.5266 85.2409 68.7655 85.7073 68.7655C86.4808 68.7655 87.0041 67.8669 87.0041 66.5474C87.0041 64.2382 85.3092 62.5889 82.9432 62.5889C80.6454 62.5889 78.8709 64.3861 78.8709 66.7066C78.8709 69.0612 80.6341 70.8585 82.9432 70.8585C83.8987 70.8585 84.7973 70.5514 85.5253 69.9599L85.8438 70.4263C85.0248 71.0746 84.0352 71.4273 82.9432 71.4273C80.2814 71.4273 78.2567 69.3911 78.2567 66.7066C78.2567 64.0562 80.2928 62.0201 82.9432 62.0201C85.6618 62.0201 87.6183 63.9084 87.6183 66.5474C87.6183 68.1512 86.7993 69.3001 85.6504 69.3001C84.8656 69.3001 84.3992 68.9475 84.3309 68.265C84.0124 68.9134 83.3072 69.3001 82.4427 69.3001C81.3621 69.3001 80.6909 68.7314 80.6909 67.81ZM81.4189 67.7986C81.4189 68.3787 81.8398 68.6972 82.6019 68.6972C83.6371 68.6972 84.2741 68.0147 84.2741 66.8772V66.627L82.7726 66.7407C81.8853 66.8204 81.4189 67.173 81.4189 67.7986ZM88.5423 67.4005C88.5423 65.899 89.5091 64.6591 91.1244 64.6591C92.0799 64.6591 92.8079 65.1027 93.1605 65.9104L93.2401 64.807H93.9226V70.1419C93.9226 71.7799 92.8761 72.8491 91.2609 72.8491C89.8504 72.8491 88.8608 72.0529 88.6446 70.722H89.4295C89.6001 71.6093 90.2826 72.1325 91.2723 72.1325C92.3984 72.1325 93.1491 71.3704 93.1491 70.2215V68.9134C92.7738 69.6869 92.0116 70.1419 91.0675 70.1419C89.4978 70.1419 88.5423 68.902 88.5423 67.4005ZM89.3271 67.3891C89.3271 68.5152 90.021 69.4366 91.1813 69.4366C92.3756 69.4366 93.0809 68.5721 93.0809 67.3891C93.0809 66.2175 92.3984 65.353 91.1926 65.353C90.0096 65.353 89.3271 66.2744 89.3271 67.3891ZM96.3453 70.3125H95.5605V64.807H96.243L96.334 65.5919C96.607 65.0117 97.2212 64.6591 97.9947 64.6591C98.8592 64.6591 99.5076 65.1141 99.7692 65.8307C100.019 65.1141 100.691 64.6591 101.578 64.6591C102.772 64.6591 103.557 65.4326 103.557 66.7066V70.3125H102.795V66.8659C102.795 65.9217 102.272 65.3644 101.43 65.3644C100.509 65.3644 99.9626 66.0582 99.9626 66.9114V70.3125H99.1891V66.8545C99.1891 65.9217 98.6545 65.3757 97.8241 65.3757C96.9027 65.3757 96.3453 66.0582 96.3453 66.9V70.3125ZM106.717 70.449C105.545 70.449 104.852 69.7892 104.852 68.8224C104.852 67.81 105.625 67.173 106.91 67.0706L108.73 66.9227V66.7407C108.73 65.6601 108.082 65.3189 107.274 65.3189C106.319 65.3189 105.75 65.7511 105.75 66.4905H105.034C105.034 65.3757 105.944 64.6591 107.297 64.6591C108.571 64.6591 109.504 65.2961 109.504 66.7521V70.3125H108.844L108.742 69.3456C108.401 70.0395 107.65 70.449 106.717 70.449ZM106.899 69.812C108.059 69.812 108.73 69.0044 108.73 67.81V67.5142L107.104 67.6394C106.069 67.7304 105.648 68.1854 105.648 68.7996C105.648 69.4707 106.148 69.812 106.899 69.812ZM111.466 63.2941C111.147 63.2941 110.886 63.0325 110.886 62.714C110.886 62.3955 111.147 62.1225 111.466 62.1225C111.784 62.1225 112.057 62.3955 112.057 62.714C112.057 63.0325 111.784 63.2941 111.466 63.2941ZM111.079 70.3125V64.807H111.864V70.3125H111.079ZM114.32 70.3125H113.535V62.0201H114.32V70.3125ZM116.66 70.4376C116.273 70.4376 115.943 70.1191 115.943 69.7437C115.943 69.357 116.273 69.0271 116.66 69.0271C117.047 69.0271 117.377 69.357 117.377 69.7437C117.377 70.1191 117.047 70.4376 116.66 70.4376ZM118.235 67.5711C118.235 65.8421 119.293 64.6591 120.896 64.6591C122.17 64.6591 123.103 65.3985 123.319 66.536H122.534C122.33 65.7739 121.67 65.353 120.908 65.353C119.793 65.353 119.008 66.2061 119.008 67.5597C119.008 68.8679 119.736 69.7437 120.851 69.7437C121.67 69.7437 122.33 69.2887 122.546 68.5835H123.342C123.08 69.7096 122.102 70.449 120.851 70.449C119.293 70.449 118.235 69.3001 118.235 67.5711ZM124.144 67.5597C124.144 65.8762 125.327 64.6591 126.943 64.6591C128.558 64.6591 129.741 65.8762 129.741 67.5597C129.741 69.2319 128.558 70.449 126.943 70.449C125.327 70.449 124.144 69.2319 124.144 67.5597ZM124.941 67.5484C124.941 68.8451 125.76 69.7437 126.943 69.7437C128.114 69.7437 128.945 68.8451 128.945 67.5484C128.945 66.2744 128.114 65.3644 126.943 65.3644C125.76 65.3644 124.941 66.2744 124.941 67.5484ZM131.781 70.3125H130.996V64.807H131.679L131.77 65.5919C132.043 65.0117 132.657 64.6591 133.43 64.6591C134.295 64.6591 134.943 65.1141 135.205 65.8307C135.455 65.1141 136.126 64.6591 137.014 64.6591C138.208 64.6591 138.993 65.4326 138.993 66.7066V70.3125H138.231V66.8659C138.231 65.9217 137.707 65.3644 136.866 65.3644C135.944 65.3644 135.398 66.0582 135.398 66.9114V70.3125H134.625V66.8545C134.625 65.9217 134.09 65.3757 133.26 65.3757C132.338 65.3757 131.781 66.0582 131.781 66.9V70.3125Z" fill="#262626"/>
<path d="M41.2088 94.196H39.3774V97.0625H37.9214V88.7474H41.2088C42.8809 88.7474 43.9615 89.8394 43.9615 91.466C43.9615 93.0699 42.8695 94.196 41.2088 94.196ZM40.9244 90.0441H39.3774V92.8992H40.9016C41.9026 92.8992 42.4373 92.3646 42.4373 91.4546C42.4373 90.5446 41.8913 90.0441 40.9244 90.0441ZM46.3693 97.0625H44.9815V88.5995H46.3806V92.1712C46.7333 91.6252 47.393 91.2726 48.2006 91.2726C49.5884 91.2726 50.3164 92.1485 50.3164 93.6045V97.0625H48.9286V93.9344C48.9286 92.9902 48.4623 92.5352 47.757 92.5352C46.8811 92.5352 46.3693 93.1495 46.3693 93.9912V97.0625ZM51.35 94.2415C51.35 92.4897 52.6126 91.284 54.353 91.284C56.0934 91.284 57.356 92.4897 57.356 94.2415C57.356 95.9932 56.0934 97.199 54.353 97.199C52.6126 97.199 51.35 95.9932 51.35 94.2415ZM52.7378 94.2415C52.7378 95.2652 53.3975 95.9591 54.353 95.9591C55.3085 95.9591 55.9683 95.2652 55.9683 94.2415C55.9683 93.2177 55.3085 92.5239 54.353 92.5239C53.3975 92.5239 52.7378 93.2177 52.7378 94.2415ZM59.8438 97.0625H58.456V91.4432H59.7414L59.8551 92.1712C60.2078 91.6025 60.8903 91.2726 61.6524 91.2726C63.0629 91.2726 63.7909 92.1485 63.7909 93.6045V97.0625H62.4031V93.9344C62.4031 92.9902 61.9368 92.5352 61.2201 92.5352C60.367 92.5352 59.8438 93.1267 59.8438 94.0367V97.0625ZM67.6682 97.2104C65.9961 97.2104 64.8245 95.9932 64.8245 94.2529C64.8245 92.4897 65.9734 91.2726 67.6227 91.2726C69.3062 91.2726 70.3755 92.3987 70.3755 94.1505V94.5714L66.144 94.5827C66.2464 95.5724 66.7696 96.0729 67.691 96.0729C68.4531 96.0729 68.9536 95.7771 69.1129 95.2425H70.3982C70.1594 96.471 69.1356 97.2104 67.6682 97.2104ZM67.6341 92.4101C66.8151 92.4101 66.3146 92.8537 66.1781 93.6955H68.9991C68.9991 92.922 68.4645 92.4101 67.6341 92.4101ZM76.1901 97.0625H74.7568V88.7474H76.2014L80.1031 94.6396V88.7474H81.5363V97.0625H80.1031L76.1901 91.1702V97.0625ZM86.9828 91.4432H88.3706V97.0625H87.0852L86.9828 96.3118C86.6416 96.8464 85.9136 97.2104 85.1628 97.2104C83.8661 97.2104 83.1039 96.3345 83.1039 94.9581V91.4432H84.4917V94.469C84.4917 95.5382 84.9126 95.9705 85.6861 95.9705C86.5619 95.9705 86.9828 95.4586 86.9828 94.3894V91.4432ZM91.1917 97.0625H89.8039V91.4432H91.0779L91.1917 92.103C91.476 91.6366 92.0448 91.2726 92.8524 91.2726C93.7055 91.2726 94.297 91.6935 94.5928 92.3419C94.8772 91.6935 95.5369 91.2726 96.39 91.2726C97.755 91.2726 98.5058 92.0916 98.5058 93.3884V97.0625H97.1294V93.7524C97.1294 92.9447 96.6972 92.5239 96.0374 92.5239C95.3663 92.5239 94.8544 92.9561 94.8544 93.8775V97.0625H93.4667V93.741C93.4667 92.9561 93.0458 92.5352 92.386 92.5352C91.7263 92.5352 91.1917 92.9675 91.1917 93.8775V97.0625ZM101.153 97.0625H99.8681V88.5995H101.256V92.2622C101.62 91.6366 102.371 91.2612 103.224 91.2612C104.828 91.2612 105.806 92.5125 105.806 94.287C105.806 96.016 104.748 97.2104 103.133 97.2104C102.291 97.2104 101.574 96.835 101.244 96.1866L101.153 97.0625ZM101.267 94.2301C101.267 95.2425 101.893 95.9364 102.848 95.9364C103.827 95.9364 104.407 95.2311 104.407 94.2301C104.407 93.2291 103.827 92.5125 102.848 92.5125C101.893 92.5125 101.267 93.2177 101.267 94.2301ZM109.425 97.2104C107.753 97.2104 106.581 95.9932 106.581 94.2529C106.581 92.4897 107.73 91.2726 109.379 91.2726C111.063 91.2726 112.132 92.3987 112.132 94.1505V94.5714L107.9 94.5827C108.003 95.5724 108.526 96.0729 109.447 96.0729C110.21 96.0729 110.71 95.7771 110.869 95.2425H112.155C111.916 96.471 110.892 97.2104 109.425 97.2104ZM109.391 92.4101C108.572 92.4101 108.071 92.8537 107.935 93.6955H110.756C110.756 92.922 110.221 92.4101 109.391 92.4101ZM116.769 91.4205V92.7059H116.257C115.256 92.7059 114.63 93.2405 114.63 94.3325V97.0625H113.243V91.4546H114.551L114.63 92.2736C114.869 91.7162 115.404 91.3409 116.155 91.3409C116.348 91.3409 116.541 91.3636 116.769 91.4205Z" fill="#262626"/>
<path d="M37.91 111.501H40.4011V109.01H41.1064V111.501H43.5975V112.207H41.1064V114.709H40.4011V112.207H37.91V111.501ZM46.0563 110.284L48.0924 107.543H49.0479L46.9094 110.375C47.2962 110.182 47.6488 110.102 48.0242 110.102C49.719 110.102 50.8452 111.342 50.8452 112.935C50.8452 114.607 49.5825 115.824 47.9559 115.824C46.3179 115.824 45.0325 114.561 45.0325 112.935C45.0325 111.991 45.2942 111.331 46.0563 110.284ZM45.8629 112.946C45.8629 114.186 46.716 115.085 47.9559 115.085C49.1617 115.085 50.0262 114.186 50.0262 112.946C50.0262 111.706 49.1617 110.819 47.9559 110.819C46.716 110.819 45.8629 111.706 45.8629 112.946ZM57.1107 115.688H51.7417V115.039L54.3466 112.764C55.8481 111.456 56.2349 110.887 56.2349 109.92C56.2349 108.817 55.5751 108.146 54.4945 108.146C53.3684 108.146 52.629 108.965 52.5949 110.227H51.7759C51.8214 108.521 52.902 107.395 54.5059 107.395C56.0415 107.395 57.0652 108.385 57.0652 109.875C57.0652 111.058 56.5306 111.843 54.904 113.265L53.0044 114.925H57.1107V115.688ZM59.6983 108.282H58.0375V107.543H60.4832V115.688H59.6983V108.282ZM67.3194 115.688H61.9504V115.039L64.5552 112.764C66.0567 111.456 66.4435 110.887 66.4435 109.92C66.4435 108.817 65.7837 108.146 64.7031 108.146C63.577 108.146 62.8376 108.965 62.8035 110.227H61.9845C62.03 108.521 63.1106 107.395 64.7145 107.395C66.2501 107.395 67.2739 108.385 67.2739 109.875C67.2739 111.058 66.7392 111.843 65.1126 113.265L63.213 114.925H67.3194V115.688ZM70.7259 111.319H70.0775V110.751L72.5914 108.271H68.6898V107.543H73.6265V108.203L71.1923 110.626C72.7165 110.705 73.8085 111.672 73.8085 113.151C73.8085 114.766 72.6255 115.824 70.9761 115.824C69.3723 115.824 68.2916 114.834 68.2916 113.208H69.0993C69.0993 114.379 69.8273 115.085 70.9761 115.085C72.1933 115.085 72.9781 114.311 72.9781 113.128C72.9781 112.013 72.1819 111.319 70.7259 111.319ZM80.7302 113.958H79.7747V115.688H78.9785V113.958H74.7015V113.23L78.6827 107.543H79.7747V113.23H80.7302V113.958ZM75.5887 113.23H78.9785V108.385L75.5887 113.23ZM84.4991 115.824C82.8611 115.824 81.8146 114.8 81.8146 113.196H82.6336C82.6336 114.368 83.3502 115.073 84.5104 115.073C85.7389 115.073 86.5352 114.254 86.5352 113.048C86.5352 111.911 85.7958 111.012 84.5104 111.012C83.7597 111.012 83.0772 111.354 82.6336 111.843L81.9852 111.638L82.9634 107.543H86.8992V108.294H83.5549L82.9407 110.853C83.3957 110.489 83.9872 110.284 84.6242 110.284C86.3191 110.284 87.3656 111.501 87.3656 113.026C87.3656 114.664 86.2053 115.824 84.4991 115.824ZM89.379 110.284L91.4152 107.543H92.3707L90.2322 110.375C90.6189 110.182 90.9715 110.102 91.3469 110.102C93.0418 110.102 94.1679 111.342 94.1679 112.935C94.1679 114.607 92.9053 115.824 91.2787 115.824C89.6407 115.824 88.3553 114.561 88.3553 112.935C88.3553 111.991 88.6169 111.331 89.379 110.284ZM89.1857 112.946C89.1857 114.186 90.0388 115.085 91.2787 115.085C92.4844 115.085 93.3489 114.186 93.3489 112.946C93.3489 111.706 92.4844 110.819 91.2787 110.819C90.0388 110.819 89.1857 111.706 89.1857 112.946ZM94.1329 107.543H99.6725V108.294L96.4648 115.688H95.623L98.8421 108.294H94.1329V107.543ZM100.231 113.469C100.231 112.468 100.834 111.672 101.801 111.342C100.982 111.012 100.516 110.341 100.516 109.499C100.516 108.248 101.585 107.395 103.143 107.395C104.69 107.395 105.726 108.248 105.726 109.511C105.726 110.364 105.271 111.035 104.463 111.342C105.407 111.638 106.033 112.457 106.033 113.481C106.033 114.868 104.861 115.824 103.132 115.824C101.403 115.824 100.231 114.868 100.231 113.469ZM101.289 109.522C101.289 110.421 102.017 111.024 103.132 111.024C104.235 111.024 104.952 110.444 104.952 109.545C104.952 108.669 104.235 108.123 103.132 108.123C102.017 108.123 101.289 108.669 101.289 109.522ZM101.039 113.401C101.039 114.413 101.881 115.085 103.143 115.085C104.383 115.085 105.225 114.413 105.225 113.401C105.225 112.4 104.406 111.752 103.121 111.752C101.858 111.752 101.039 112.4 101.039 113.401ZM111.928 112.935L109.892 115.688H108.937L111.075 112.844C110.7 113.048 110.347 113.117 109.961 113.117C108.266 113.117 107.14 111.877 107.14 110.284C107.14 108.624 108.402 107.395 110.029 107.395C111.667 107.395 112.952 108.658 112.952 110.296C112.952 111.24 112.702 111.9 111.928 112.935ZM112.133 110.284C112.133 109.044 111.269 108.146 110.029 108.146C108.823 108.146 107.959 109.044 107.959 110.284C107.959 111.513 108.823 112.4 110.029 112.4C111.269 112.4 112.133 111.513 112.133 110.284ZM115.496 108.282H113.835V107.543H116.281V115.688H115.496V108.282ZM117.862 111.615C117.862 109.09 119.101 107.384 121.126 107.384C123.14 107.384 124.379 109.09 124.379 111.615C124.379 114.152 123.162 115.835 121.126 115.835C119.079 115.835 117.862 114.152 117.862 111.615ZM118.669 111.615C118.669 113.731 119.568 115.096 121.126 115.096C122.685 115.096 123.583 113.731 123.583 111.615C123.583 109.488 122.685 108.134 121.126 108.134C119.568 108.134 118.669 109.488 118.669 111.615Z" fill="#262626"/>
<path d="M41.2088 139.571H39.3774V142.438H37.9214V134.122H41.2088C42.8809 134.122 43.9615 135.214 43.9615 136.841C43.9615 138.445 42.8695 139.571 41.2088 139.571ZM40.9244 135.419H39.3774V138.274H40.9016C41.9026 138.274 42.4373 137.74 42.4373 136.83C42.4373 135.92 41.8913 135.419 40.9244 135.419ZM46.4315 142.585C45.2371 142.585 44.5091 141.891 44.5091 140.834C44.5091 139.798 45.2598 139.15 46.5907 139.048L48.2742 138.923V138.797C48.2742 138.035 47.8192 137.728 47.114 137.728C46.295 137.728 45.84 138.069 45.84 138.661H44.657C44.657 137.444 45.658 136.648 47.1822 136.648C48.6951 136.648 49.6278 137.467 49.6278 139.025V142.438H48.4107L48.3083 141.607C48.0695 142.187 47.3073 142.585 46.4315 142.585ZM46.8865 141.539C47.7396 141.539 48.2856 141.027 48.2856 140.162V139.867L47.114 139.958C46.2495 140.037 45.9196 140.322 45.9196 140.777C45.9196 141.289 46.2608 141.539 46.8865 141.539ZM50.5589 140.731H51.8784C51.8898 141.22 52.2538 141.527 52.8908 141.527C53.5392 141.527 53.8918 141.266 53.8918 140.856C53.8918 140.572 53.7439 140.367 53.2434 140.253L52.231 140.015C51.2187 139.787 50.7295 139.309 50.7295 138.411C50.7295 137.307 51.6623 136.648 52.959 136.648C54.2217 136.648 55.0748 137.376 55.0862 138.468H53.7667C53.7553 137.99 53.4368 137.683 52.9022 137.683C52.3562 137.683 52.0377 137.933 52.0377 138.354C52.0377 138.672 52.2879 138.877 52.7657 138.991L53.778 139.23C54.7222 139.446 55.1999 139.878 55.1999 140.743C55.1999 141.88 54.233 142.585 52.8453 142.585C51.4462 142.585 50.5589 141.835 50.5589 140.731ZM55.8243 140.731H57.1438C57.1552 141.22 57.5192 141.527 58.1562 141.527C58.8045 141.527 59.1572 141.266 59.1572 140.856C59.1572 140.572 59.0093 140.367 58.5088 140.253L57.4964 140.015C56.484 139.787 55.9949 139.309 55.9949 138.411C55.9949 137.307 56.9277 136.648 58.2244 136.648C59.487 136.648 60.3402 137.376 60.3515 138.468H59.032C59.0207 137.99 58.7022 137.683 58.1675 137.683C57.6215 137.683 57.303 137.933 57.303 138.354C57.303 138.672 57.5533 138.877 58.031 138.991L59.0434 139.23C59.9875 139.446 60.4653 139.878 60.4653 140.743C60.4653 141.88 59.4984 142.585 58.1107 142.585C56.7115 142.585 55.8243 141.835 55.8243 140.731ZM62.6063 142.438L60.7863 136.818H62.2309L62.9703 139.23C63.0954 139.673 63.2092 140.162 63.3115 140.686C63.4139 140.14 63.5163 139.787 63.6983 139.23L64.4718 136.818H65.8823L66.633 139.23C66.7013 139.457 66.9288 140.299 66.997 140.674C67.088 140.253 67.27 139.582 67.3724 139.23L68.1232 136.818H69.5905L67.6454 142.438H66.3487L65.5752 140.003C65.3477 139.264 65.2225 138.729 65.177 138.445C65.1202 138.706 65.0178 139.105 64.7334 140.026L63.9599 142.438H62.6063ZM69.8233 139.616C69.8233 137.865 71.0859 136.659 72.8263 136.659C74.5666 136.659 75.8293 137.865 75.8293 139.616C75.8293 141.368 74.5666 142.574 72.8263 142.574C71.0859 142.574 69.8233 141.368 69.8233 139.616ZM71.211 139.616C71.211 140.64 71.8708 141.334 72.8263 141.334C73.7818 141.334 74.4415 140.64 74.4415 139.616C74.4415 138.593 73.7818 137.899 72.8263 137.899C71.8708 137.899 71.211 138.593 71.211 139.616ZM80.4555 136.795V138.081H79.9436C78.9426 138.081 78.317 138.615 78.317 139.707V142.438H76.9293V136.83H78.2374L78.317 137.649C78.5559 137.091 79.0905 136.716 79.8413 136.716C80.0346 136.716 80.228 136.739 80.4555 136.795ZM83.5151 142.585C81.8885 142.585 80.8761 141.391 80.8761 139.651C80.8761 137.899 81.8999 136.648 83.5948 136.648C84.3796 136.648 85.0735 136.977 85.4261 137.535V133.974H86.8025V142.438H85.5285L85.4375 141.562C85.0963 142.21 84.3683 142.585 83.5151 142.585ZM83.8223 141.311C84.7891 141.311 85.4148 140.617 85.4148 139.605C85.4148 138.593 84.7891 137.887 83.8223 137.887C82.8554 137.887 82.2639 138.604 82.2639 139.605C82.2639 140.606 82.8554 141.311 83.8223 141.311Z" fill="#262626"/>
<path d="M41.8756 161.199C39.4528 161.199 37.883 159.515 37.883 156.911C37.883 154.328 39.5096 152.611 41.9439 152.611C43.9118 152.611 45.3791 153.76 45.6635 155.546H44.1279C43.8435 154.579 43.0131 154.01 41.9098 154.01C40.3741 154.01 39.4073 155.125 39.4073 156.899C39.4073 158.662 40.3855 159.8 41.9098 159.8C43.0359 159.8 43.9004 159.208 44.1734 158.287H45.6863C45.3678 160.039 43.8435 161.199 41.8756 161.199ZM48.1195 161.062H46.7317V152.599H48.1308V156.171C48.4835 155.625 49.1432 155.273 49.9508 155.273C51.3386 155.273 52.0666 156.148 52.0666 157.604V161.062H50.6788V157.934C50.6788 156.99 50.2125 156.535 49.5072 156.535C48.6313 156.535 48.1195 157.149 48.1195 157.991V161.062ZM55.1022 161.21C53.9078 161.21 53.1798 160.516 53.1798 159.459C53.1798 158.423 53.9306 157.775 55.2614 157.673L56.9449 157.548V157.422C56.9449 156.66 56.4899 156.353 55.7847 156.353C54.9657 156.353 54.5107 156.694 54.5107 157.286H53.3277C53.3277 156.069 54.3287 155.273 55.8529 155.273C57.3658 155.273 58.2986 156.092 58.2986 157.65V161.062H57.0814L56.9791 160.232C56.7402 160.812 55.9781 161.21 55.1022 161.21ZM55.5572 160.164C56.4103 160.164 56.9563 159.652 56.9563 158.787V158.492L55.7847 158.583C54.9202 158.662 54.5903 158.947 54.5903 159.402C54.5903 159.914 54.9316 160.164 55.5572 160.164ZM61.0496 161.062H59.6619V155.443H60.9473L61.061 156.171C61.4136 155.602 62.0961 155.273 62.8583 155.273C64.2688 155.273 64.9968 156.148 64.9968 157.604V161.062H63.609V157.934C63.609 156.99 63.1426 156.535 62.426 156.535C61.5729 156.535 61.0496 157.127 61.0496 158.037V161.062ZM66.0417 158.128C66.0417 156.49 67.111 155.261 68.7149 155.261C69.5566 155.261 70.2164 155.614 70.5462 156.217L70.6259 155.443H71.9112V160.778C71.9112 162.655 70.7851 163.827 68.9651 163.827C67.3499 163.827 66.2465 162.905 66.0759 161.404H67.4636C67.5546 162.132 68.112 162.564 68.9651 162.564C69.9206 162.564 70.5349 161.961 70.5349 161.028V160.096C70.1822 160.619 69.4884 160.949 68.6807 160.949C67.0882 160.949 66.0417 159.754 66.0417 158.128ZM67.4409 158.094C67.4409 159.038 68.0437 159.743 68.9537 159.743C69.9092 159.743 70.5007 159.072 70.5007 158.094C70.5007 157.138 69.9206 156.478 68.9537 156.478C68.0324 156.478 67.4409 157.172 67.4409 158.094ZM75.8613 161.21C74.1892 161.21 73.0175 159.993 73.0175 158.253C73.0175 156.49 74.1664 155.273 75.8158 155.273C77.4993 155.273 78.5685 156.399 78.5685 158.15V158.571L74.337 158.583C74.4394 159.572 74.9627 160.073 75.884 160.073C76.6462 160.073 77.1467 159.777 77.3059 159.242H78.5913C78.3524 160.471 77.3287 161.21 75.8613 161.21ZM75.8272 156.41C75.0082 156.41 74.5077 156.854 74.3712 157.695H77.1922C77.1922 156.922 76.6575 156.41 75.8272 156.41ZM82.7451 163.667V155.443H84.0305L84.1215 156.296C84.4628 155.648 85.2021 155.273 86.0553 155.273C87.6364 155.273 88.6829 156.421 88.6829 158.185C88.6829 159.936 87.7274 161.21 86.0553 161.21C85.2135 161.21 84.4855 160.88 84.1329 160.312V163.667H82.7451ZM84.1443 158.253C84.1443 159.265 84.7699 159.959 85.7254 159.959C86.7036 159.959 87.2838 159.254 87.2838 158.253C87.2838 157.252 86.7036 156.535 85.7254 156.535C84.7699 156.535 84.1443 157.24 84.1443 158.253ZM91.46 161.21C90.2656 161.21 89.5376 160.516 89.5376 159.459C89.5376 158.423 90.2884 157.775 91.6192 157.673L93.3027 157.548V157.422C93.3027 156.66 92.8477 156.353 92.1425 156.353C91.3235 156.353 90.8685 156.694 90.8685 157.286H89.6855C89.6855 156.069 90.6865 155.273 92.2107 155.273C93.7236 155.273 94.6564 156.092 94.6564 157.65V161.062H93.4392L93.3369 160.232C93.098 160.812 92.3359 161.21 91.46 161.21ZM91.915 160.164C92.7681 160.164 93.3141 159.652 93.3141 158.787V158.492L92.1425 158.583C91.278 158.662 90.9481 158.947 90.9481 159.402C90.9481 159.914 91.2894 160.164 91.915 160.164ZM95.5874 159.356H96.9069C96.9183 159.845 97.2823 160.152 97.9193 160.152C98.5677 160.152 98.9203 159.891 98.9203 159.481C98.9203 159.197 98.7724 158.992 98.2719 158.878L97.2595 158.64C96.2472 158.412 95.758 157.934 95.758 157.036C95.758 155.932 96.6908 155.273 97.9875 155.273C99.2502 155.273 100.103 156.001 100.115 157.093H98.7952C98.7838 156.615 98.4653 156.308 97.9307 156.308C97.3847 156.308 97.0662 156.558 97.0662 156.979C97.0662 157.297 97.3164 157.502 97.7942 157.616L98.8065 157.855C99.7507 158.071 100.228 158.503 100.228 159.368C100.228 160.505 99.2615 161.21 97.8738 161.21C96.4747 161.21 95.5874 160.46 95.5874 159.356ZM100.853 159.356H102.172C102.184 159.845 102.548 160.152 103.185 160.152C103.833 160.152 104.186 159.891 104.186 159.481C104.186 159.197 104.038 158.992 103.537 158.878L102.525 158.64C101.513 158.412 101.023 157.934 101.023 157.036C101.023 155.932 101.956 155.273 103.253 155.273C104.516 155.273 105.369 156.001 105.38 157.093H104.061C104.049 156.615 103.731 156.308 103.196 156.308C102.65 156.308 102.332 156.558 102.332 156.979C102.332 157.297 102.582 157.502 103.06 157.616L104.072 157.855C105.016 158.071 105.494 158.503 105.494 159.368C105.494 160.505 104.527 161.21 103.139 161.21C101.74 161.21 100.853 160.46 100.853 159.356ZM107.635 161.062L105.815 155.443H107.259L107.999 157.855C108.124 158.298 108.238 158.787 108.34 159.311C108.442 158.765 108.545 158.412 108.727 157.855L109.5 155.443H110.911L111.662 157.855C111.73 158.082 111.957 158.924 112.026 159.299C112.117 158.878 112.299 158.207 112.401 157.855L113.152 155.443H114.619L112.674 161.062H111.377L110.604 158.628C110.376 157.889 110.251 157.354 110.206 157.07C110.149 157.331 110.046 157.73 109.762 158.651L108.988 161.062H107.635ZM114.852 158.241C114.852 156.49 116.114 155.284 117.855 155.284C119.595 155.284 120.858 156.49 120.858 158.241C120.858 159.993 119.595 161.199 117.855 161.199C116.114 161.199 114.852 159.993 114.852 158.241ZM116.24 158.241C116.24 159.265 116.899 159.959 117.855 159.959C118.81 159.959 119.47 159.265 119.47 158.241C119.47 157.218 118.81 156.524 117.855 156.524C116.899 156.524 116.24 157.218 116.24 158.241ZM125.484 155.42V156.706H124.972C123.971 156.706 123.346 157.24 123.346 158.332V161.062H121.958V155.455H123.266L123.346 156.274C123.584 155.716 124.119 155.341 124.87 155.341C125.063 155.341 125.257 155.364 125.484 155.42ZM128.544 161.21C126.917 161.21 125.905 160.016 125.905 158.276C125.905 156.524 126.928 155.273 128.623 155.273C129.408 155.273 130.102 155.602 130.455 156.16V152.599H131.831V161.062H130.557L130.466 160.187C130.125 160.835 129.397 161.21 128.544 161.21ZM128.851 159.936C129.818 159.936 130.443 159.242 130.443 158.23C130.443 157.218 129.818 156.512 128.851 156.512C127.884 156.512 127.292 157.229 127.292 158.23C127.292 159.231 127.884 159.936 128.851 159.936Z" fill="#C46969"/>
</g>
<rect width="292.5" height="520" transform="translate(7.75 -337)" fill="#171717" fill-opacity="0.4"/>
<g clip-path="url(#clip2_54_11270)">
<path d="M7.75 44C7.75 38.6152 12.1152 34.25 17.5 34.25H290.5C295.885 34.25 300.25 38.6152 300.25 44V183H7.75V44Z" fill="white"/>
<mask id="mask0_54_11270" style="mask-type:alpha" maskUnits="userSpaceOnUse" x="78" y="50" width="20" height="20">
<rect x="78.5" y="50.5" width="19.5" height="19.5" fill="#D9D9D9"/>
</mask>
<g mask="url(#mask0_54_11270)">
<path d="M87.1125 61.7125L85.3656 59.9656C85.2167 59.8167 85.0271 59.7422 84.7969 59.7422C84.5667 59.7422 84.3771 59.8167 84.2281 59.9656C84.0792 60.1146 84.0047 60.3042 84.0047 60.5344C84.0047 60.7646 84.0792 60.9542 84.2281 61.1031L86.5438 63.4188C86.7063 63.5813 86.8958 63.6625 87.1125 63.6625C87.3292 63.6625 87.5188 63.5813 87.6813 63.4188L92.2719 58.8281C92.4208 58.6792 92.4953 58.4896 92.4953 58.2594C92.4953 58.0292 92.4208 57.8396 92.2719 57.6906C92.1229 57.5417 91.9333 57.4672 91.7031 57.4672C91.4729 57.4672 91.2833 57.5417 91.1344 57.6906L87.1125 61.7125ZM88.25 68.375C87.126 68.375 86.0698 68.1617 85.0812 67.7352C84.0927 67.3086 83.2328 66.7297 82.5016 65.9984C81.7703 65.2672 81.1914 64.4073 80.7648 63.4188C80.3383 62.4302 80.125 61.374 80.125 60.25C80.125 59.126 80.3383 58.0698 80.7648 57.0812C81.1914 56.0927 81.7703 55.2328 82.5016 54.5016C83.2328 53.7703 84.0927 53.1914 85.0812 52.7648C86.0698 52.3383 87.126 52.125 88.25 52.125C89.374 52.125 90.4302 52.3383 91.4188 52.7648C92.4073 53.1914 93.2672 53.7703 93.9984 54.5016C94.7297 55.2328 95.3086 56.0927 95.7352 57.0812C96.1617 58.0698 96.375 59.126 96.375 60.25C96.375 61.374 96.1617 62.4302 95.7352 63.4188C95.3086 64.4073 94.7297 65.2672 93.9984 65.9984C93.2672 66.7297 92.4073 67.3086 91.4188 67.7352C90.4302 68.1617 89.374 68.375 88.25 68.375Z" fill="#039855"/>
</g>
<path d="M107.979 65.5H106.107V54.8091H110.187C112.615 54.8091 114.034 56.0376 114.034 58.1436C114.034 59.5769 113.361 60.6006 112.103 61.1125L114.136 65.5H112.089L110.275 61.5074H107.979V65.5ZM107.979 56.4764V59.8547H110.187C111.372 59.8547 112.074 59.2259 112.074 58.1436C112.074 57.076 111.372 56.4764 110.187 56.4764H107.979ZM118.359 65.6901C116.209 65.6901 114.703 64.1252 114.703 61.8876C114.703 59.6207 116.18 58.0559 118.301 58.0559C120.465 58.0559 121.84 59.5037 121.84 61.756V62.2971L116.399 62.3117C116.531 63.5841 117.204 64.2276 118.388 64.2276C119.368 64.2276 120.012 63.8474 120.217 63.16H121.869C121.562 64.7395 120.246 65.6901 118.359 65.6901ZM118.315 59.5184C117.262 59.5184 116.619 60.0887 116.443 61.171H120.07C120.07 60.1765 119.383 59.5184 118.315 59.5184ZM125.052 65.5H123.268V58.2752H124.906L125.052 59.1235C125.418 58.5239 126.149 58.0559 127.187 58.0559C128.284 58.0559 129.045 58.597 129.425 59.4306C129.791 58.597 130.639 58.0559 131.736 58.0559C133.491 58.0559 134.456 59.1089 134.456 60.7761V65.5H132.686V61.2441C132.686 60.2057 132.131 59.6646 131.282 59.6646C130.42 59.6646 129.761 60.2204 129.761 61.405V65.5H127.977V61.2295C127.977 60.2204 127.436 59.6792 126.588 59.6792C125.74 59.6792 125.052 60.235 125.052 61.405V65.5ZM137.1 56.8274C136.486 56.8274 136.003 56.3447 136.003 55.7451C136.003 55.1455 136.486 54.6775 137.1 54.6775C137.685 54.6775 138.167 55.1455 138.167 55.7451C138.167 56.3447 137.685 56.8274 137.1 56.8274ZM136.208 65.5V58.2752H137.992V65.5H136.208ZM141.62 65.5H139.835V58.2752H141.488L141.634 59.2112C142.088 58.48 142.965 58.0559 143.945 58.0559C145.759 58.0559 146.695 59.182 146.695 61.054V65.5H144.91V61.4781C144.91 60.2642 144.311 59.6792 143.389 59.6792C142.292 59.6792 141.62 60.4397 141.62 61.6097V65.5ZM151.416 65.6901C149.325 65.6901 148.023 64.1545 148.023 61.9169C148.023 59.6646 149.34 58.0559 151.519 58.0559C152.528 58.0559 153.42 58.48 153.873 59.1966V54.619H155.643V65.5H154.005L153.888 64.3739C153.449 65.2075 152.513 65.6901 151.416 65.6901ZM151.811 64.0521C153.054 64.0521 153.859 63.16 153.859 61.8584C153.859 60.5567 153.054 59.65 151.811 59.65C150.568 59.65 149.808 60.5714 149.808 61.8584C149.808 63.1454 150.568 64.0521 151.811 64.0521ZM160.735 65.6901C158.585 65.6901 157.078 64.1252 157.078 61.8876C157.078 59.6207 158.555 58.0559 160.676 58.0559C162.841 58.0559 164.215 59.5037 164.215 61.756V62.2971L158.775 62.3117C158.906 63.5841 159.579 64.2276 160.764 64.2276C161.744 64.2276 162.387 63.8474 162.592 63.16H164.245C163.937 64.7395 162.621 65.6901 160.735 65.6901ZM160.691 59.5184C159.638 59.5184 158.994 60.0887 158.819 61.171H162.446C162.446 60.1765 161.758 59.5184 160.691 59.5184ZM170.177 58.246V59.8986H169.519C168.232 59.8986 167.428 60.586 167.428 61.99V65.5H165.643V58.2899H167.325L167.428 59.3429C167.735 58.6262 168.422 58.1436 169.387 58.1436C169.636 58.1436 169.885 58.1729 170.177 58.246ZM180.109 65.6755C176.994 65.6755 174.976 63.511 174.976 60.1619C174.976 56.842 177.067 54.6336 180.197 54.6336C182.727 54.6336 184.614 56.1107 184.979 58.4069H183.005C182.639 57.1637 181.572 56.4325 180.153 56.4325C178.179 56.4325 176.935 57.8657 176.935 60.1472C176.935 62.4141 178.193 63.8766 180.153 63.8766C181.601 63.8766 182.712 63.1161 183.063 61.9315H185.008C184.599 64.1837 182.639 65.6755 180.109 65.6755ZM190.958 58.246V59.8986H190.3C189.013 59.8986 188.208 60.586 188.208 61.99V65.5H186.424V58.2899H188.106L188.208 59.3429C188.515 58.6262 189.203 58.1436 190.168 58.1436C190.417 58.1436 190.665 58.1729 190.958 58.246ZM195.155 65.6901C193.005 65.6901 191.499 64.1252 191.499 61.8876C191.499 59.6207 192.976 58.0559 195.096 58.0559C197.261 58.0559 198.636 59.5037 198.636 61.756V62.2971L193.195 62.3117C193.327 63.5841 193.999 64.2276 195.184 64.2276C196.164 64.2276 196.807 63.8474 197.012 63.16H198.665C198.358 64.7395 197.041 65.6901 195.155 65.6901ZM195.111 59.5184C194.058 59.5184 193.414 60.0887 193.239 61.171H196.866C196.866 60.1765 196.179 59.5184 195.111 59.5184ZM202.142 65.6901C200.606 65.6901 199.67 64.798 199.67 63.4379C199.67 62.107 200.636 61.2734 202.347 61.1417L204.511 60.9809V60.82C204.511 59.8401 203.926 59.4452 203.019 59.4452C201.966 59.4452 201.381 59.884 201.381 60.6445H199.86C199.86 59.0796 201.147 58.0559 203.107 58.0559C205.052 58.0559 206.252 59.1089 206.252 61.1125V65.5H204.687L204.555 64.4324C204.248 65.1782 203.268 65.6901 202.142 65.6901ZM202.727 64.3446C203.824 64.3446 204.526 63.6865 204.526 62.575V62.1947L203.019 62.3117C201.908 62.4141 201.484 62.7797 201.484 63.3647C201.484 64.0229 201.923 64.3446 202.727 64.3446ZM210.361 65.5H208.577V59.767H207.188V58.2752H208.577V56.023H210.361V58.2752H211.765V59.767H210.361V65.5ZM216.035 65.6901C213.886 65.6901 212.379 64.1252 212.379 61.8876C212.379 59.6207 213.856 58.0559 215.977 58.0559C218.141 58.0559 219.516 59.5037 219.516 61.756V62.2971L214.076 62.3117C214.207 63.5841 214.88 64.2276 216.065 64.2276C217.045 64.2276 217.688 63.8474 217.893 63.16H219.545C219.238 64.7395 217.922 65.6901 216.035 65.6901ZM215.992 59.5184C214.939 59.5184 214.295 60.0887 214.12 61.171H217.747C217.747 60.1765 217.059 59.5184 215.992 59.5184ZM223.913 65.6901C221.822 65.6901 220.52 64.1545 220.52 61.9169C220.52 59.6646 221.836 58.0559 224.015 58.0559C225.025 58.0559 225.917 58.48 226.37 59.1966V54.619H228.14V65.5H226.502L226.385 64.3739C225.946 65.2075 225.01 65.6901 223.913 65.6901ZM224.308 64.0521C225.551 64.0521 226.355 63.16 226.355 61.8584C226.355 60.5567 225.551 59.65 224.308 59.65C223.065 59.65 222.304 60.5714 222.304 61.8584C222.304 63.1454 223.065 64.0521 224.308 64.0521Z" fill="#262626"/>
<path d="M30.6754 83.3489L27.9112 78.6055H28.8326L30.846 82.1204C30.937 82.291 31.0052 82.4275 31.0849 82.6095C31.1872 82.4047 31.1872 82.4047 31.3351 82.1204L33.3257 78.6055H34.2244L31.4944 83.3489V86.75H30.6754V83.3489ZM33.7062 83.9972C33.7062 82.3137 34.8892 81.0966 36.5044 81.0966C38.1197 81.0966 39.3027 82.3137 39.3027 83.9972C39.3027 85.6694 38.1197 86.8865 36.5044 86.8865C34.8892 86.8865 33.7062 85.6694 33.7062 83.9972ZM34.5024 83.9859C34.5024 85.2826 35.3214 86.1812 36.5044 86.1812C37.6761 86.1812 38.5064 85.2826 38.5064 83.9859C38.5064 82.7119 37.6761 81.8019 36.5044 81.8019C35.3214 81.8019 34.5024 82.7119 34.5024 83.9859ZM44.2922 81.2445H45.0771V86.75H44.3946L44.2922 85.8172C43.9851 86.4542 43.223 86.8865 42.3585 86.8865C41.0617 86.8865 40.3565 85.9993 40.3565 84.657V81.2331H41.1527V84.4067C41.1527 85.7149 41.7328 86.1812 42.6087 86.1812C43.6666 86.1812 44.2922 85.476 44.2922 84.1679V81.2445ZM49.5899 81.1762V81.8815H49.1577C48.1453 81.8815 47.4969 82.564 47.4969 83.6105V86.75H46.7121V81.2445H47.4514L47.5083 82.0976C47.7244 81.5061 48.3046 81.1194 49.0781 81.1194C49.2487 81.1194 49.3966 81.1307 49.5899 81.1762ZM56.666 81.1762V81.8815H56.2337C55.2214 81.8815 54.573 82.564 54.573 83.6105V86.75H53.7881V81.2445H54.5275L54.5844 82.0976C54.8005 81.5061 55.3806 81.1194 56.1541 81.1194C56.3247 81.1194 56.4726 81.1307 56.666 81.1762ZM59.8074 86.8865C58.1922 86.8865 57.1116 85.7262 57.1116 83.9972C57.1116 82.2796 58.1808 81.0966 59.7506 81.0966C61.2407 81.0966 62.2531 82.1545 62.2531 83.7129V84.0996H57.8737C57.9306 85.4419 58.6358 86.2154 59.8188 86.2154C60.7174 86.2154 61.2976 85.8286 61.5023 85.1006H62.2531C61.9573 86.2609 61.1042 86.8865 59.8074 86.8865ZM59.7506 81.7677C58.7154 81.7677 58.0329 82.4502 57.8964 83.5309H61.4682C61.4682 82.473 60.7857 81.7677 59.7506 81.7677ZM64.2928 86.75H63.508V81.2445H64.1905L64.2815 82.0294C64.5545 81.4492 65.1687 81.0966 65.9422 81.0966C66.8067 81.0966 67.4551 81.5516 67.7167 82.2682C67.967 81.5516 68.6381 81.0966 69.5253 81.0966C70.7197 81.0966 71.5046 81.8701 71.5046 83.1441V86.75H70.7425V83.3034C70.7425 82.3592 70.2192 81.8019 69.3775 81.8019C68.4561 81.8019 67.9101 82.4957 67.9101 83.3489V86.75H67.1366V83.292C67.1366 82.3592 66.602 81.8132 65.7716 81.8132C64.8502 81.8132 64.2928 82.4957 64.2928 83.3375V86.75ZM73.4702 79.7316C73.1517 79.7316 72.89 79.47 72.89 79.1515C72.89 78.833 73.1517 78.56 73.4702 78.56C73.7887 78.56 74.0617 78.833 74.0617 79.1515C74.0617 79.47 73.7887 79.7316 73.4702 79.7316ZM73.0834 86.75V81.2445H73.8683V86.75H73.0834ZM76.2899 86.75H75.505V81.2445H76.1875L76.3013 82.2C76.6653 81.4947 77.3933 81.0966 78.1895 81.0966C79.7024 81.0966 80.328 81.9952 80.328 83.383V86.75H79.5432V83.5536C79.5432 82.2682 78.963 81.8132 78.053 81.8132C76.9269 81.8132 76.2899 82.6322 76.2899 83.8721V86.75ZM84.0536 86.8865C82.4497 86.8865 81.5056 85.658 81.5056 84.0086C81.5056 82.3479 82.4497 81.0966 84.0877 81.0966C84.9977 81.0966 85.7257 81.4947 86.1125 82.291V78.4576H86.8974V86.75H86.2149L86.1352 85.6239C85.7485 86.477 84.975 86.8865 84.0536 86.8865ZM84.1901 86.1699C85.3959 86.1699 86.1011 85.2599 86.1011 83.9859C86.1011 82.7232 85.3959 81.8019 84.1901 81.8019C82.9957 81.8019 82.3019 82.7232 82.3019 83.9859C82.3019 85.2599 82.9957 86.1699 84.1901 86.1699ZM90.8443 86.8865C89.2291 86.8865 88.1484 85.7262 88.1484 83.9972C88.1484 82.2796 89.2177 81.0966 90.7874 81.0966C92.2776 81.0966 93.2899 82.1545 93.2899 83.7129V84.0996H88.9106C88.9674 85.4419 89.6727 86.2154 90.8557 86.2154C91.7543 86.2154 92.3344 85.8286 92.5392 85.1006H93.2899C92.9942 86.2609 92.1411 86.8865 90.8443 86.8865ZM90.7874 81.7677C89.7523 81.7677 89.0698 82.4502 88.9333 83.5309H92.5051C92.5051 82.473 91.8226 81.7677 90.7874 81.7677ZM97.4227 81.1762V81.8815H96.9905C95.9781 81.8815 95.3297 82.564 95.3297 83.6105V86.75H94.5448V81.2445H95.2842L95.3411 82.0976C95.5572 81.5061 96.1373 81.1194 96.9108 81.1194C97.0815 81.1194 97.2293 81.1307 97.4227 81.1762ZM102.008 79.7316C101.689 79.7316 101.428 79.47 101.428 79.1515C101.428 78.833 101.689 78.56 102.008 78.56C102.326 78.56 102.599 78.833 102.599 79.1515C102.599 79.47 102.326 79.7316 102.008 79.7316ZM101.621 86.75V81.2445H102.406V86.75H101.621ZM103.576 85.203H104.327C104.327 85.84 104.805 86.2381 105.578 86.2381C106.431 86.2381 106.932 85.8741 106.932 85.2826C106.932 84.8276 106.704 84.566 106.056 84.4067L105.112 84.1679C104.156 83.929 103.69 83.4285 103.69 82.6777C103.69 81.7109 104.498 81.0966 105.681 81.0966C106.841 81.0966 107.592 81.7336 107.626 82.7574H106.864C106.841 82.1204 106.397 81.745 105.658 81.745C104.884 81.745 104.452 82.0749 104.452 82.6664C104.452 83.0872 104.748 83.383 105.351 83.5309L106.295 83.7697C107.25 84.0086 107.683 84.4522 107.683 85.2485C107.683 86.2381 106.841 86.8865 105.59 86.8865C104.35 86.8865 103.576 86.2267 103.576 85.203ZM111.663 85.203H112.414C112.414 85.84 112.892 86.2381 113.665 86.2381C114.518 86.2381 115.019 85.8741 115.019 85.2826C115.019 84.8276 114.791 84.566 114.143 84.4067L113.199 84.1679C112.243 83.929 111.777 83.4285 111.777 82.6777C111.777 81.7109 112.584 81.0966 113.767 81.0966C114.928 81.0966 115.678 81.7336 115.713 82.7574H114.95C114.928 82.1204 114.484 81.745 113.745 81.745C112.971 81.745 112.539 82.0749 112.539 82.6664C112.539 83.0872 112.835 83.383 113.438 83.5309L114.382 83.7697C115.337 84.0086 115.769 84.4522 115.769 85.2485C115.769 86.2381 114.928 86.8865 113.676 86.8865C112.437 86.8865 111.663 86.2267 111.663 85.203ZM120.929 81.2445H121.714V86.75H121.031L120.929 85.8172C120.622 86.4542 119.86 86.8865 118.995 86.8865C117.699 86.8865 116.993 85.9993 116.993 84.657V81.2331H117.79V84.4067C117.79 85.7149 118.37 86.1812 119.246 86.1812C120.303 86.1812 120.929 85.476 120.929 84.1679V81.2445ZM122.851 84.0086C122.851 82.2796 123.909 81.0966 125.513 81.0966C126.787 81.0966 127.72 81.836 127.936 82.9735H127.151C126.946 82.2114 126.286 81.7905 125.524 81.7905C124.409 81.7905 123.625 82.6436 123.625 83.9972C123.625 85.3054 124.353 86.1812 125.467 86.1812C126.286 86.1812 126.946 85.7262 127.162 85.021H127.958C127.697 86.1471 126.719 86.8865 125.467 86.8865C123.909 86.8865 122.851 85.7376 122.851 84.0086ZM128.761 84.0086C128.761 82.2796 129.819 81.0966 131.422 81.0966C132.696 81.0966 133.629 81.836 133.845 82.9735H133.06C132.856 82.2114 132.196 81.7905 131.434 81.7905C130.319 81.7905 129.534 82.6436 129.534 83.9972C129.534 85.3054 130.262 86.1812 131.377 86.1812C132.196 86.1812 132.856 85.7262 133.072 85.021H133.868C133.606 86.1471 132.628 86.8865 131.377 86.8865C129.819 86.8865 128.761 85.7376 128.761 84.0086ZM137.366 86.8865C135.751 86.8865 134.67 85.7262 134.67 83.9972C134.67 82.2796 135.74 81.0966 137.309 81.0966C138.8 81.0966 139.812 82.1545 139.812 83.7129V84.0996H135.433C135.489 85.4419 136.195 86.2154 137.378 86.2154C138.276 86.2154 138.856 85.8286 139.061 85.1006H139.812C139.516 86.2609 138.663 86.8865 137.366 86.8865ZM137.309 81.7677C136.274 81.7677 135.592 82.4502 135.455 83.5309H139.027C139.027 82.473 138.345 81.7677 137.309 81.7677ZM140.6 85.203H141.351C141.351 85.84 141.829 86.2381 142.602 86.2381C143.456 86.2381 143.956 85.8741 143.956 85.2826C143.956 84.8276 143.729 84.566 143.08 84.4067L142.136 84.1679C141.181 83.929 140.714 83.4285 140.714 82.6777C140.714 81.7109 141.522 81.0966 142.705 81.0966C143.865 81.0966 144.616 81.7336 144.65 82.7574H143.888C143.865 82.1204 143.421 81.745 142.682 81.745C141.909 81.745 141.476 82.0749 141.476 82.6664C141.476 83.0872 141.772 83.383 142.375 83.5309L143.319 83.7697C144.275 84.0086 144.707 84.4522 144.707 85.2485C144.707 86.2381 143.865 86.8865 142.614 86.8865C141.374 86.8865 140.6 86.2267 140.6 85.203ZM145.533 85.203H146.283C146.283 85.84 146.761 86.2381 147.535 86.2381C148.388 86.2381 148.888 85.8741 148.888 85.2826C148.888 84.8276 148.661 84.566 148.012 84.4067L147.068 84.1679C146.113 83.929 145.646 83.4285 145.646 82.6777C145.646 81.7109 146.454 81.0966 147.637 81.0966C148.797 81.0966 149.548 81.7336 149.582 82.7574H148.82C148.797 82.1204 148.354 81.745 147.614 81.745C146.841 81.745 146.408 82.0749 146.408 82.6664C146.408 83.0872 146.704 83.383 147.307 83.5309L148.251 83.7697C149.207 84.0086 149.639 84.4522 149.639 85.2485C149.639 86.2381 148.797 86.8865 147.546 86.8865C146.306 86.8865 145.533 86.2267 145.533 85.203ZM150.317 81.2445H151.159V80.1752C151.159 78.9354 151.841 78.4576 152.683 78.4576C152.876 78.4576 153.104 78.469 153.286 78.5031V79.1742H152.819C152.125 79.1742 151.943 79.5269 151.943 80.1752V81.2445H153.24V81.9042H151.943V86.75H151.159V81.9042H150.317V81.2445ZM158.176 81.2445H158.96V86.75H158.278L158.176 85.8172C157.868 86.4542 157.106 86.8865 156.242 86.8865C154.945 86.8865 154.24 85.9993 154.24 84.657V81.2331H155.036V84.4067C155.036 85.7149 155.616 86.1812 156.492 86.1812C157.55 86.1812 158.176 85.476 158.176 84.1679V81.2445ZM161.414 86.75H160.629V78.4576H161.414V86.75ZM163.903 86.75H163.118V78.4576H163.903V86.75ZM165.015 89.1501V88.5018H165.617C166.095 88.5018 166.573 88.4676 166.846 87.7283L167.085 87.0799L164.855 81.2445H165.686L167.46 86.0447L169.201 81.2445H170.008L167.483 88.0126C167.164 88.8771 166.63 89.2298 165.845 89.2298C165.515 89.2298 165.265 89.207 165.015 89.1501ZM174.468 79.7316C174.149 79.7316 173.888 79.47 173.888 79.1515C173.888 78.833 174.149 78.56 174.468 78.56C174.786 78.56 175.059 78.833 175.059 79.1515C175.059 79.47 174.786 79.7316 174.468 79.7316ZM174.081 86.75V81.2445H174.866V86.75H174.081ZM176.036 85.203H176.787C176.787 85.84 177.265 86.2381 178.038 86.2381C178.891 86.2381 179.392 85.8741 179.392 85.2826C179.392 84.8276 179.164 84.566 178.516 84.4067L177.572 84.1679C176.616 83.929 176.15 83.4285 176.15 82.6777C176.15 81.7109 176.958 81.0966 178.141 81.0966C179.301 81.0966 180.052 81.7336 180.086 82.7574H179.324C179.301 82.1204 178.857 81.745 178.118 81.745C177.344 81.745 176.912 82.0749 176.912 82.6664C176.912 83.0872 177.208 83.383 177.811 83.5309L178.755 83.7697C179.71 84.0086 180.143 84.4522 180.143 85.2485C180.143 86.2381 179.301 86.8865 178.05 86.8865C176.81 86.8865 176.036 86.2267 176.036 85.203ZM184.203 84.0086C184.203 82.2796 185.261 81.0966 186.865 81.0966C188.139 81.0966 189.071 81.836 189.287 82.9735H188.503C188.298 82.2114 187.638 81.7905 186.876 81.7905C185.761 81.7905 184.976 82.6436 184.976 83.9972C184.976 85.3054 185.704 86.1812 186.819 86.1812C187.638 86.1812 188.298 85.7262 188.514 85.021H189.31C189.049 86.1471 188.07 86.8865 186.819 86.8865C185.261 86.8865 184.203 85.7376 184.203 84.0086ZM193.377 81.1762V81.8815H192.945C191.932 81.8815 191.284 82.564 191.284 83.6105V86.75H190.499V81.2445H191.239L191.295 82.0976C191.512 81.5061 192.092 81.1194 192.865 81.1194C193.036 81.1194 193.184 81.1307 193.377 81.1762ZM196.519 86.8865C194.903 86.8865 193.823 85.7262 193.823 83.9972C193.823 82.2796 194.892 81.0966 196.462 81.0966C197.952 81.0966 198.964 82.1545 198.964 83.7129V84.0996H194.585C194.642 85.4419 195.347 86.2154 196.53 86.2154C197.429 86.2154 198.009 85.8286 198.213 85.1006H198.964C198.668 86.2609 197.815 86.8865 196.519 86.8865ZM196.462 81.7677C195.427 81.7677 194.744 82.4502 194.608 83.5309H198.179C198.179 82.473 197.497 81.7677 196.462 81.7677ZM201.745 86.8865C200.573 86.8865 199.879 86.2267 199.879 85.2599C199.879 84.2475 200.653 83.6105 201.938 83.5081L203.758 83.3602V83.1782C203.758 82.0976 203.11 81.7564 202.302 81.7564C201.346 81.7564 200.778 82.1886 200.778 82.928H200.061C200.061 81.8132 200.971 81.0966 202.325 81.0966C203.599 81.0966 204.531 81.7336 204.531 83.1896V86.75H203.872L203.769 85.7831C203.428 86.477 202.677 86.8865 201.745 86.8865ZM201.927 86.2495C203.087 86.2495 203.758 85.4419 203.758 84.2475V83.9517L202.131 84.0769C201.096 84.1679 200.675 84.6229 200.675 85.2371C200.675 85.9082 201.176 86.2495 201.927 86.2495ZM207.269 86.75H206.496V81.9042H205.392V81.2445H206.496V79.5041H207.269V81.2445H208.373V81.9042H207.269V86.75ZM211.648 86.8865C210.033 86.8865 208.952 85.7262 208.952 83.9972C208.952 82.2796 210.022 81.0966 211.591 81.0966C213.081 81.0966 214.094 82.1545 214.094 83.7129V84.0996H209.714C209.771 85.4419 210.477 86.2154 211.66 86.2154C212.558 86.2154 213.138 85.8286 213.343 85.1006H214.094C213.798 86.2609 212.945 86.8865 211.648 86.8865ZM211.591 81.7677C210.556 81.7677 209.874 82.4502 209.737 83.5309H213.309C213.309 82.473 212.626 81.7677 211.591 81.7677ZM217.51 86.8865C215.906 86.8865 214.962 85.658 214.962 84.0086C214.962 82.3479 215.906 81.0966 217.544 81.0966C218.454 81.0966 219.182 81.4947 219.569 82.291V78.4576H220.354V86.75H219.671L219.592 85.6239C219.205 86.477 218.431 86.8865 217.51 86.8865ZM217.646 86.1699C218.852 86.1699 219.557 85.2599 219.557 83.9859C219.557 82.7232 218.852 81.8019 217.646 81.8019C216.452 81.8019 215.758 82.7232 215.758 83.9859C215.758 85.2599 216.452 86.1699 217.646 86.1699ZM222.663 86.8751C222.276 86.8751 221.946 86.5566 221.946 86.1812C221.946 85.7945 222.276 85.4646 222.663 85.4646C223.049 85.4646 223.379 85.7945 223.379 86.1812C223.379 86.5566 223.049 86.8751 222.663 86.8751ZM230.182 83.3489L227.418 78.6055H228.339L230.353 82.1204C230.444 82.291 230.512 82.4275 230.592 82.6095C230.694 82.4047 230.694 82.4047 230.842 82.1204L232.833 78.6055H233.731L231.001 83.3489V86.75H230.182V83.3489ZM233.213 83.9972C233.213 82.3137 234.396 81.0966 236.011 81.0966C237.627 81.0966 238.81 82.3137 238.81 83.9972C238.81 85.6694 237.627 86.8865 236.011 86.8865C234.396 86.8865 233.213 85.6694 233.213 83.9972ZM234.009 83.9859C234.009 85.2826 234.828 86.1812 236.011 86.1812C237.183 86.1812 238.013 85.2826 238.013 83.9859C238.013 82.7119 237.183 81.8019 236.011 81.8019C234.828 81.8019 234.009 82.7119 234.009 83.9859ZM243.799 81.2445H244.584V86.75H243.901L243.799 85.8172C243.492 86.4542 242.73 86.8865 241.865 86.8865C240.569 86.8865 239.863 85.9993 239.863 84.657V81.2331H240.66V84.4067C240.66 85.7149 241.24 86.1812 242.116 86.1812C243.173 86.1812 243.799 85.476 243.799 84.1679V81.2445ZM250.534 86.75L248.714 81.2445H249.522L250.602 84.566C250.727 84.93 250.83 85.3054 250.943 85.749C251.034 85.3054 251.216 84.748 251.273 84.566L252.365 81.2445H253.173L254.254 84.566C254.356 84.8617 254.492 85.3395 254.595 85.749C254.709 85.294 254.731 85.1575 254.925 84.566L256.017 81.2445H256.836L254.97 86.75H254.208L253.071 83.292C252.934 82.8825 252.843 82.5412 252.775 82.2114C252.695 82.5071 252.604 82.837 252.456 83.292L251.319 86.75H250.534ZM258.203 79.7316C257.884 79.7316 257.623 79.47 257.623 79.1515C257.623 78.833 257.884 78.56 258.203 78.56C258.521 78.56 258.794 78.833 258.794 79.1515C258.794 79.47 258.521 79.7316 258.203 79.7316ZM257.816 86.75V81.2445H258.601V86.75H257.816ZM261.057 86.75H260.272V78.4576H261.057V86.75ZM263.545 86.75H262.76V78.4576H263.545V86.75ZM269.052 86.75H268.369V78.4576H269.154V82.3137C269.541 81.5061 270.291 81.0966 271.224 81.0966C272.828 81.0966 273.761 82.3479 273.761 84.0086C273.761 85.658 272.805 86.8865 271.201 86.8865C270.28 86.8865 269.518 86.477 269.131 85.6239L269.052 86.75ZM269.165 83.9859C269.165 85.2599 269.871 86.1699 271.076 86.1699C272.271 86.1699 272.965 85.2599 272.965 83.9859C272.965 82.7232 272.271 81.8019 271.076 81.8019C269.871 81.8019 269.165 82.7232 269.165 83.9859ZM277.321 86.8865C275.706 86.8865 274.625 85.7262 274.625 83.9972C274.625 82.2796 275.694 81.0966 277.264 81.0966C278.754 81.0966 279.767 82.1545 279.767 83.7129V84.0996H275.387C275.444 85.4419 276.149 86.2154 277.332 86.2154C278.231 86.2154 278.811 85.8286 279.016 85.1006H279.767C279.471 86.2609 278.618 86.8865 277.321 86.8865ZM277.264 81.7677C276.229 81.7677 275.546 82.4502 275.41 83.5309H278.982C278.982 82.473 278.299 81.7677 277.264 81.7677ZM35.0055 102.75H34.2207V97.2445H34.9032L35.0169 98.2C35.3809 97.4947 36.1089 97.0966 36.9052 97.0966C38.418 97.0966 39.0437 97.9952 39.0437 99.383V102.75H38.2588V99.5536C38.2588 98.2682 37.6787 97.8132 36.7687 97.8132C35.6425 97.8132 35.0055 98.6322 35.0055 99.8721V102.75ZM40.2213 99.9972C40.2213 98.3137 41.4043 97.0966 43.0195 97.0966C44.6348 97.0966 45.8178 98.3137 45.8178 99.9972C45.8178 101.669 44.6348 102.887 43.0195 102.887C41.4043 102.887 40.2213 101.669 40.2213 99.9972ZM41.0175 99.9859C41.0175 101.283 41.8365 102.181 43.0195 102.181C44.1911 102.181 45.0215 101.283 45.0215 99.9859C45.0215 98.7119 44.1911 97.8019 43.0195 97.8019C41.8365 97.8019 41.0175 98.7119 41.0175 99.9859ZM51.1125 95.6747C50.794 95.6747 50.5665 95.4472 50.5665 95.1287C50.5665 94.8102 50.794 94.5714 51.1125 94.5714C51.4197 94.5714 51.6585 94.8102 51.6585 95.1287C51.6585 95.4472 51.4197 95.6747 51.1125 95.6747ZM48.2802 102.75H47.5067V97.9042H46.4033V97.2445H47.5067V95.5041H48.2802V97.2445H51.4993V102.75H50.7144V97.9042H48.2802V102.75ZM56.7336 102.75V97.9042H54.1173V102.75H53.3324V97.9042H52.4907V97.2445H53.3324V96.1752C53.3324 94.9354 54.0036 94.4576 54.8226 94.4576C55.0159 94.4576 55.2548 94.469 55.4368 94.5031V95.1856H54.9591C54.2993 95.1856 54.1173 95.5269 54.1173 96.1752V97.2445H57.5184V102.75H56.7336ZM57.1203 95.6747C56.8018 95.6747 56.5743 95.4472 56.5743 95.1287C56.5743 94.8102 56.8018 94.5714 57.1203 94.5714C57.4274 94.5714 57.6663 94.8102 57.6663 95.1287C57.6663 95.4472 57.4274 95.6747 57.1203 95.6747ZM61.4348 102.887C59.8196 102.887 58.739 101.726 58.739 99.9972C58.739 98.2796 59.8082 97.0966 61.378 97.0966C62.8681 97.0966 63.8805 98.1545 63.8805 99.7129V100.1H59.5011C59.558 101.442 60.2632 102.215 61.4462 102.215C62.3448 102.215 62.925 101.829 63.1297 101.101H63.8805C63.5847 102.261 62.7316 102.887 61.4348 102.887ZM61.378 97.7677C60.3428 97.7677 59.6603 98.4502 59.5238 99.5309H63.0956C63.0956 98.473 62.4131 97.7677 61.378 97.7677ZM67.2966 102.887C65.6927 102.887 64.7486 101.658 64.7486 100.009C64.7486 98.3479 65.6927 97.0966 67.3307 97.0966C68.2407 97.0966 68.9687 97.4947 69.3555 98.291V94.4576H70.1403V102.75H69.4578L69.3782 101.624C68.9915 102.477 68.218 102.887 67.2966 102.887ZM67.4331 102.17C68.6388 102.17 69.3441 101.26 69.3441 99.9859C69.3441 98.7232 68.6388 97.8019 67.4331 97.8019C66.2387 97.8019 65.5448 98.7232 65.5448 99.9859C65.5448 101.26 66.2387 102.17 67.4331 102.17ZM74.3187 97.2445H75.1605V96.1752C75.1605 94.9354 75.843 94.4576 76.6847 94.4576C76.8781 94.4576 77.1056 94.469 77.2876 94.5031V95.1742H76.8212C76.1273 95.1742 75.9453 95.5269 75.9453 96.1752V97.2445H77.2421V97.9042H75.9453V102.75H75.1605V97.9042H74.3187V97.2445ZM81.1878 97.1762V97.8815H80.7555C79.7432 97.8815 79.0948 98.564 79.0948 99.6105V102.75H78.3099V97.2445H79.0493L79.1062 98.0976C79.3223 97.5061 79.9024 97.1194 80.6759 97.1194C80.8465 97.1194 80.9944 97.1307 81.1878 97.1762ZM81.6334 99.9972C81.6334 98.3137 82.8164 97.0966 84.4316 97.0966C86.0469 97.0966 87.2299 98.3137 87.2299 99.9972C87.2299 101.669 86.0469 102.887 84.4316 102.887C82.8164 102.887 81.6334 101.669 81.6334 99.9972ZM82.4296 99.9859C82.4296 101.283 83.2486 102.181 84.4316 102.181C85.6032 102.181 86.4336 101.283 86.4336 99.9859C86.4336 98.7119 85.6032 97.8019 84.4316 97.8019C83.2486 97.8019 82.4296 98.7119 82.4296 99.9859ZM89.2701 102.75H88.4852V97.2445H89.1677L89.2587 98.0294C89.5317 97.4492 90.1459 97.0966 90.9194 97.0966C91.7839 97.0966 92.4323 97.5516 92.6939 98.2682C92.9442 97.5516 93.6153 97.0966 94.5026 97.0966C95.6969 97.0966 96.4818 97.8701 96.4818 99.1441V102.75H95.7197V99.3034C95.7197 98.3592 95.1964 97.8019 94.3547 97.8019C93.4333 97.8019 92.8873 98.4957 92.8873 99.3489V102.75H92.1138V99.292C92.1138 98.3592 91.5792 97.8132 90.7488 97.8132C89.8274 97.8132 89.2701 98.4957 89.2701 99.3375V102.75ZM100.658 105.15V104.502H101.261C101.739 104.502 102.216 104.468 102.489 103.728L102.728 103.08L100.499 97.2445H101.329L103.104 102.045L104.844 97.2445H105.652L103.126 104.013C102.808 104.877 102.273 105.23 101.488 105.23C101.159 105.23 100.908 105.207 100.658 105.15ZM105.994 99.9972C105.994 98.3137 107.177 97.0966 108.792 97.0966C110.408 97.0966 111.591 98.3137 111.591 99.9972C111.591 101.669 110.408 102.887 108.792 102.887C107.177 102.887 105.994 101.669 105.994 99.9972ZM106.79 99.9859C106.79 101.283 107.609 102.181 108.792 102.181C109.964 102.181 110.794 101.283 110.794 99.9859C110.794 98.7119 109.964 97.8019 108.792 97.8019C107.609 97.8019 106.79 98.7119 106.79 99.9859ZM116.58 97.2445H117.365V102.75H116.682L116.58 101.817C116.273 102.454 115.511 102.887 114.646 102.887C113.35 102.887 112.644 101.999 112.644 100.657V97.2331H113.441V100.407C113.441 101.715 114.021 102.181 114.897 102.181C115.954 102.181 116.58 101.476 116.58 100.168V97.2445ZM121.878 97.1762V97.8815H121.446C120.433 97.8815 119.785 98.564 119.785 99.6105V102.75H119V97.2445H119.739L119.796 98.0976C120.012 97.5061 120.592 97.1194 121.366 97.1194C121.537 97.1194 121.684 97.1307 121.878 97.1762ZM127.851 102.75L125.428 94.6055H126.281L127.93 100.202C128.044 100.6 128.146 101.01 128.249 101.544C128.385 100.953 128.499 100.6 128.624 100.202L130.399 94.6055H131.252L133.026 100.202C133.151 100.611 133.265 101.021 133.39 101.544C133.515 100.919 133.618 100.52 133.709 100.213L135.392 94.6055H136.223L133.777 102.75H133.003L130.819 95.834L128.635 102.75H127.851ZM137.992 102.739H137.207V94.4576H137.992V98.2C138.344 97.5402 139.015 97.0966 139.937 97.0966C141.381 97.0966 142.03 97.9952 142.03 99.383V102.75H141.245V99.5536C141.245 98.2682 140.642 97.8132 139.789 97.8132C138.606 97.8132 137.992 98.6891 137.992 99.747V102.739ZM145.175 102.887C144.003 102.887 143.31 102.227 143.31 101.26C143.31 100.247 144.083 99.6105 145.368 99.5081L147.188 99.3602V99.1782C147.188 98.0976 146.54 97.7564 145.732 97.7564C144.777 97.7564 144.208 98.1886 144.208 98.928H143.492C143.492 97.8132 144.402 97.0966 145.755 97.0966C147.029 97.0966 147.962 97.7336 147.962 99.1896V102.75H147.302L147.2 101.783C146.859 102.477 146.108 102.887 145.175 102.887ZM145.357 102.249C146.517 102.249 147.188 101.442 147.188 100.247V99.9517L145.562 100.077C144.527 100.168 144.106 100.623 144.106 101.237C144.106 101.908 144.606 102.249 145.357 102.249ZM150.7 102.75H149.926V97.9042H148.823V97.2445H149.926V95.5041H150.7V97.2445H151.803V97.9042H150.7V102.75ZM152.359 101.203H153.109C153.109 101.84 153.587 102.238 154.361 102.238C155.214 102.238 155.714 101.874 155.714 101.283C155.714 100.828 155.487 100.566 154.838 100.407L153.894 100.168C152.939 99.929 152.472 99.4285 152.472 98.6777C152.472 97.7109 153.28 97.0966 154.463 97.0966C155.623 97.0966 156.374 97.7336 156.408 98.7574H155.646C155.623 98.1204 155.18 97.745 154.44 97.745C153.667 97.745 153.235 98.0749 153.235 98.6664C153.235 99.0872 153.53 99.383 154.133 99.5309L155.077 99.7697C156.033 100.009 156.465 100.452 156.465 101.249C156.465 102.238 155.623 102.887 154.372 102.887C153.132 102.887 152.359 102.227 152.359 101.203ZM157.928 102.75H157.097L160.089 94.6055H161.101L164.127 102.75H163.274L162.478 100.589H158.724L157.928 102.75ZM160.487 95.7544L158.974 99.8721H162.216L160.692 95.7544C160.658 95.6406 160.601 95.5041 160.59 95.4245C160.578 95.4927 160.533 95.6406 160.487 95.7544ZM165.089 105.15V97.2445H165.771L165.851 98.3592C166.238 97.5061 167.011 97.0966 167.932 97.0966C169.525 97.0966 170.48 98.3137 170.48 99.9745C170.48 101.635 169.559 102.887 167.932 102.887C167 102.887 166.26 102.488 165.874 101.692V105.15H165.089ZM165.885 99.9972C165.885 101.26 166.59 102.181 167.796 102.181C168.99 102.181 169.684 101.26 169.684 99.9972C169.684 98.7232 168.99 97.8132 167.796 97.8132C166.59 97.8132 165.885 98.7232 165.885 99.9972ZM171.732 105.15V97.2445H172.414L172.494 98.3592C172.88 97.5061 173.654 97.0966 174.575 97.0966C176.168 97.0966 177.123 98.3137 177.123 99.9745C177.123 101.635 176.202 102.887 174.575 102.887C173.643 102.887 172.903 102.488 172.516 101.692V105.15H171.732ZM172.528 99.9972C172.528 101.26 173.233 102.181 174.439 102.181C175.633 102.181 176.327 101.26 176.327 99.9972C176.327 98.7232 175.633 97.8132 174.439 97.8132C173.233 97.8132 172.528 98.7232 172.528 99.9972ZM183.656 98.6322H182.644V97.6881L184.782 95.7202H181.324V94.4349H186.602V95.5951L184.578 97.4606C185.852 97.7109 186.841 98.6436 186.841 100.111C186.841 101.817 185.51 102.898 183.827 102.898C182.2 102.898 180.938 101.897 180.938 100.1H182.371C182.371 101.055 182.962 101.601 183.85 101.601C184.76 101.601 185.363 101.01 185.363 100.088C185.363 99.2465 184.817 98.6322 183.656 98.6322ZM193.278 102.898C191.651 102.898 190.639 101.703 190.639 99.9631C190.639 98.2114 191.663 96.9601 193.358 96.9601C194.143 96.9601 194.836 97.29 195.189 97.8474V94.287H196.565V102.75H195.291L195.2 101.874C194.859 102.522 194.131 102.898 193.278 102.898ZM193.585 101.624C194.552 101.624 195.178 100.93 195.178 99.9176C195.178 98.9052 194.552 98.2 193.585 98.2C192.618 98.2 192.027 98.9166 192.027 99.9176C192.027 100.919 192.618 101.624 193.585 101.624ZM199.684 102.898C198.489 102.898 197.761 102.204 197.761 101.146C197.761 100.111 198.512 99.4626 199.843 99.3602L201.526 99.2351V99.11C201.526 98.3479 201.071 98.0407 200.366 98.0407C199.547 98.0407 199.092 98.382 199.092 98.9735H197.909C197.909 97.7564 198.91 96.9601 200.434 96.9601C201.947 96.9601 202.88 97.7791 202.88 99.3375V102.75H201.663L201.561 101.92C201.322 102.5 200.56 102.898 199.684 102.898ZM200.139 101.851C200.992 101.851 201.538 101.339 201.538 100.475V100.179L200.366 100.27C199.502 100.35 199.172 100.634 199.172 101.089C199.172 101.601 199.513 101.851 200.139 101.851ZM203.599 105.355V104.195H204.429C204.975 104.195 205.316 104.07 205.555 103.41L205.715 102.989L203.451 97.1307H204.918L206.363 101.226L207.887 97.1307H209.32L206.568 104.001C206.147 105.048 205.555 105.48 204.634 105.48C204.247 105.48 203.906 105.435 203.599 105.355ZM209.554 101.044H210.874C210.885 101.533 211.249 101.84 211.886 101.84C212.534 101.84 212.887 101.578 212.887 101.169C212.887 100.884 212.739 100.68 212.239 100.566L211.226 100.327C210.214 100.1 209.725 99.6219 209.725 98.7232C209.725 97.6199 210.658 96.9601 211.954 96.9601C213.217 96.9601 214.07 97.6881 214.081 98.7801H212.762C212.751 98.3024 212.432 97.9952 211.897 97.9952C211.351 97.9952 211.033 98.2455 211.033 98.6664C211.033 98.9849 211.283 99.1896 211.761 99.3034L212.773 99.5422C213.717 99.7584 214.195 100.191 214.195 101.055C214.195 102.193 213.228 102.898 211.841 102.898C210.441 102.898 209.554 102.147 209.554 101.044ZM219.192 102.75H218.509V94.4576H219.294V98.3137C219.681 97.5061 220.431 97.0966 221.364 97.0966C222.968 97.0966 223.901 98.3479 223.901 100.009C223.901 101.658 222.945 102.887 221.341 102.887C220.42 102.887 219.658 102.477 219.271 101.624L219.192 102.75ZM219.305 99.9859C219.305 101.26 220.011 102.17 221.216 102.17C222.411 102.17 223.105 101.26 223.105 99.9859C223.105 98.7232 222.411 97.8019 221.216 97.8019C220.011 97.8019 219.305 98.7232 219.305 99.9859ZM227.461 102.887C225.846 102.887 224.765 101.726 224.765 99.9972C224.765 98.2796 225.834 97.0966 227.404 97.0966C228.894 97.0966 229.907 98.1545 229.907 99.7129V100.1H225.527C225.584 101.442 226.289 102.215 227.472 102.215C228.371 102.215 228.951 101.829 229.156 101.101H229.907C229.611 102.261 228.758 102.887 227.461 102.887ZM227.404 97.7677C226.369 97.7677 225.686 98.4502 225.55 99.5309H229.122C229.122 98.473 228.439 97.7677 227.404 97.7677ZM230.547 97.2445H231.389V96.1752C231.389 94.9354 232.071 94.4576 232.913 94.4576C233.107 94.4576 233.334 94.469 233.516 94.5031V95.1742H233.05C232.356 95.1742 232.174 95.5269 232.174 96.1752V97.2445H233.471V97.9042H232.174V102.75H231.389V97.9042H230.547V97.2445ZM233.985 99.9972C233.985 98.3137 235.168 97.0966 236.783 97.0966C238.399 97.0966 239.582 98.3137 239.582 99.9972C239.582 101.669 238.399 102.887 236.783 102.887C235.168 102.887 233.985 101.669 233.985 99.9972ZM234.781 99.9859C234.781 101.283 235.6 102.181 236.783 102.181C237.955 102.181 238.785 101.283 238.785 99.9859C238.785 98.7119 237.955 97.8019 236.783 97.8019C235.6 97.8019 234.781 98.7119 234.781 99.9859ZM243.715 97.1762V97.8815H243.283C242.27 97.8815 241.622 98.564 241.622 99.6105V102.75H240.837V97.2445H241.576L241.633 98.0976C241.849 97.5061 242.429 97.1194 243.203 97.1194C243.374 97.1194 243.521 97.1307 243.715 97.1762ZM246.856 102.887C245.241 102.887 244.16 101.726 244.16 99.9972C244.16 98.2796 245.23 97.0966 246.799 97.0966C248.289 97.0966 249.302 98.1545 249.302 99.7129V100.1H244.922C244.979 101.442 245.685 102.215 246.868 102.215C247.766 102.215 248.346 101.829 248.551 101.101H249.302C249.006 102.261 248.153 102.887 246.856 102.887ZM246.799 97.7677C245.764 97.7677 245.082 98.4502 244.945 99.5309H248.517C248.517 98.473 247.834 97.7677 246.799 97.7677ZM253.154 105.15V104.502H253.757C254.235 104.502 254.713 104.468 254.986 103.728L255.224 103.08L252.995 97.2445H253.825L255.6 102.045L257.34 97.2445H258.148L255.623 104.013C255.304 104.877 254.769 105.23 253.985 105.23C253.655 105.23 253.404 105.207 253.154 105.15ZM258.49 99.9972C258.49 98.3137 259.673 97.0966 261.288 97.0966C262.904 97.0966 264.087 98.3137 264.087 99.9972C264.087 101.669 262.904 102.887 261.288 102.887C259.673 102.887 258.49 101.669 258.49 99.9972ZM259.286 99.9859C259.286 101.283 260.105 102.181 261.288 102.181C262.46 102.181 263.29 101.283 263.29 99.9859C263.29 98.7119 262.46 97.8019 261.288 97.8019C260.105 97.8019 259.286 98.7119 259.286 99.9859ZM269.076 97.2445H269.861V102.75H269.179L269.076 101.817C268.769 102.454 268.007 102.887 267.142 102.887C265.846 102.887 265.14 101.999 265.14 100.657V97.2331H265.937V100.407C265.937 101.715 266.517 102.181 267.393 102.181C268.451 102.181 269.076 101.476 269.076 100.168V97.2445ZM274.374 97.1762V97.8815H273.942C272.929 97.8815 272.281 98.564 272.281 99.6105V102.75H271.496V97.2445H272.235L272.292 98.0976C272.508 97.5061 273.089 97.1194 273.862 97.1194C274.033 97.1194 274.181 97.1307 274.374 97.1762ZM83.9871 113.176V113.881H83.5548C82.5425 113.881 81.8941 114.564 81.8941 115.61V118.75H81.1092V113.244H81.8486L81.9055 114.098C82.1216 113.506 82.7017 113.119 83.4752 113.119C83.6458 113.119 83.7937 113.131 83.9871 113.176ZM87.1286 118.887C85.5133 118.887 84.4327 117.726 84.4327 115.997C84.4327 114.28 85.5019 113.097 87.0717 113.097C88.5618 113.097 89.5742 114.154 89.5742 115.713V116.1H85.1948C85.2517 117.442 85.9569 118.215 87.1399 118.215C88.0386 118.215 88.6187 117.829 88.8234 117.101H89.5742C89.2784 118.261 88.4253 118.887 87.1286 118.887ZM87.0717 113.768C86.0366 113.768 85.3541 114.45 85.2176 115.531H88.7893C88.7893 114.473 88.1068 113.768 87.0717 113.768ZM91.6139 118.75H90.8291V113.244H91.5116L91.6026 114.029C91.8756 113.449 92.4898 113.097 93.2633 113.097C94.1278 113.097 94.7762 113.552 95.0378 114.268C95.2881 113.552 95.9592 113.097 96.8464 113.097C98.0408 113.097 98.8257 113.87 98.8257 115.144V118.75H98.0636V115.303C98.0636 114.359 97.5403 113.802 96.6986 113.802C95.7772 113.802 95.2312 114.496 95.2312 115.349V118.75H94.4577V115.292C94.4577 114.359 93.9231 113.813 93.0927 113.813C92.1713 113.813 91.6139 114.496 91.6139 115.337V118.75ZM100.791 111.732C100.473 111.732 100.211 111.47 100.211 111.151C100.211 110.833 100.473 110.56 100.791 110.56C101.11 110.56 101.383 110.833 101.383 111.151C101.383 111.47 101.11 111.732 100.791 111.732ZM100.405 118.75V113.244H101.189V118.75H100.405ZM103.611 118.75H102.826V113.244H103.509L103.622 114.2C103.986 113.495 104.714 113.097 105.511 113.097C107.024 113.097 107.649 113.995 107.649 115.383V118.75H106.864V115.554C106.864 114.268 106.284 113.813 105.374 113.813C104.248 113.813 103.611 114.632 103.611 115.872V118.75ZM111.375 118.887C109.771 118.887 108.827 117.658 108.827 116.009C108.827 114.348 109.771 113.097 111.409 113.097C112.319 113.097 113.047 113.495 113.434 114.291V110.458H114.218V118.75H113.536L113.456 117.624C113.07 118.477 112.296 118.887 111.375 118.887ZM111.511 118.17C112.717 118.17 113.422 117.26 113.422 115.986C113.422 114.723 112.717 113.802 111.511 113.802C110.317 113.802 109.623 114.723 109.623 115.986C109.623 117.26 110.317 118.17 111.511 118.17ZM118.165 118.887C116.55 118.887 115.47 117.726 115.47 115.997C115.47 114.28 116.539 113.097 118.109 113.097C119.599 113.097 120.611 114.154 120.611 115.713V116.1H116.232C116.289 117.442 116.994 118.215 118.177 118.215C119.075 118.215 119.656 117.829 119.86 117.101H120.611C120.315 118.261 119.462 118.887 118.165 118.887ZM118.109 113.768C117.073 113.768 116.391 114.45 116.254 115.531H119.826C119.826 114.473 119.144 113.768 118.109 113.768ZM124.027 118.887C122.423 118.887 121.479 117.658 121.479 116.009C121.479 114.348 122.423 113.097 124.061 113.097C124.971 113.097 125.699 113.495 126.086 114.291V110.458H126.871V118.75H126.188L126.109 117.624C125.722 118.477 124.949 118.887 124.027 118.887ZM124.164 118.17C125.369 118.17 126.075 117.26 126.075 115.986C126.075 114.723 125.369 113.802 124.164 113.802C122.969 113.802 122.275 114.723 122.275 115.986C122.275 117.26 122.969 118.17 124.164 118.17ZM133.825 118.887C132.221 118.887 131.277 117.658 131.277 116.009C131.277 114.348 132.221 113.097 133.859 113.097C134.769 113.097 135.497 113.495 135.884 114.291V110.458H136.669V118.75H135.986L135.906 117.624C135.52 118.477 134.746 118.887 133.825 118.887ZM133.961 118.17C135.167 118.17 135.872 117.26 135.872 115.986C135.872 114.723 135.167 113.802 133.961 113.802C132.767 113.802 132.073 114.723 132.073 115.986C132.073 117.26 132.767 118.17 133.961 118.17ZM139.887 118.887C138.716 118.887 138.022 118.227 138.022 117.26C138.022 116.247 138.795 115.61 140.081 115.508L141.901 115.36V115.178C141.901 114.098 141.252 113.756 140.445 113.756C139.489 113.756 138.921 114.189 138.921 114.928H138.204C138.204 113.813 139.114 113.097 140.468 113.097C141.742 113.097 142.674 113.734 142.674 115.19V118.75H142.015L141.912 117.783C141.571 118.477 140.82 118.887 139.887 118.887ZM140.069 118.249C141.23 118.249 141.901 117.442 141.901 116.247V115.952L140.274 116.077C139.239 116.168 138.818 116.623 138.818 117.237C138.818 117.908 139.319 118.249 140.069 118.249ZM145.412 118.75H144.639V113.904H143.535V113.244H144.639V111.504H145.412V113.244H146.515V113.904H145.412V118.75ZM149.791 118.887C148.176 118.887 147.095 117.726 147.095 115.997C147.095 114.28 148.164 113.097 149.734 113.097C151.224 113.097 152.237 114.154 152.237 115.713V116.1H147.857C147.914 117.442 148.619 118.215 149.802 118.215C150.701 118.215 151.281 117.829 151.486 117.101H152.237C151.941 118.261 151.088 118.887 149.791 118.887ZM149.734 113.768C148.699 113.768 148.017 114.45 147.88 115.531H151.452C151.452 114.473 150.769 113.768 149.734 113.768ZM158.227 118.887C157.056 118.887 156.362 118.227 156.362 117.26C156.362 116.247 157.135 115.61 158.421 115.508L160.241 115.36V115.178C160.241 114.098 159.592 113.756 158.785 113.756C157.829 113.756 157.261 114.189 157.261 114.928H156.544C156.544 113.813 157.454 113.097 158.808 113.097C160.082 113.097 161.014 113.734 161.014 115.19V118.75H160.355L160.252 117.783C159.911 118.477 159.16 118.887 158.227 118.887ZM158.409 118.249C159.57 118.249 160.241 117.442 160.241 116.247V115.952L158.614 116.077C157.579 116.168 157.158 116.623 157.158 117.237C157.158 117.908 157.659 118.249 158.409 118.249ZM163.752 118.75H162.978V113.904H161.875V113.244H162.978V111.504H163.752V113.244H164.855V113.904H163.752V118.75ZM170.42 111.743H168.6V110.435H171.819V118.75H170.42V111.743ZM179.036 118.739L173.269 118.75V117.658L175.987 115.36C177.113 114.405 177.489 113.859 177.489 113.062C177.489 112.118 176.977 111.584 176.101 111.584C175.191 111.584 174.622 112.221 174.611 113.29H173.166C173.178 111.47 174.338 110.287 176.101 110.287C177.876 110.287 178.979 111.299 178.979 112.983C178.979 114.143 178.342 115.019 177.079 116.1L175.578 117.385H179.036V118.739ZM181.207 114.746C180.706 114.746 180.286 114.336 180.286 113.847C180.286 113.347 180.706 112.937 181.207 112.937C181.707 112.937 182.128 113.347 182.128 113.847C182.128 114.336 181.707 114.746 181.207 114.746ZM181.207 118.887C180.706 118.887 180.286 118.477 180.286 117.988C180.286 117.487 180.706 117.078 181.207 117.078C181.707 117.078 182.128 117.487 182.128 117.988C182.128 118.477 181.707 118.887 181.207 118.887ZM183.465 114.609C183.465 112.027 184.853 110.276 186.98 110.276C189.107 110.276 190.507 112.027 190.507 114.609C190.507 117.18 189.187 118.898 186.98 118.898C184.774 118.898 183.465 117.18 183.465 114.609ZM184.899 114.609C184.899 116.532 185.672 117.612 186.98 117.612C188.3 117.612 189.073 116.532 189.073 114.609C189.073 112.642 188.3 111.561 186.98 111.561C185.672 111.561 184.899 112.642 184.899 114.609ZM191.486 114.609C191.486 112.027 192.873 110.276 195.001 110.276C197.128 110.276 198.527 112.027 198.527 114.609C198.527 117.18 197.207 118.898 195.001 118.898C192.794 118.898 191.486 117.18 191.486 114.609ZM192.919 114.609C192.919 116.532 193.692 117.612 195.001 117.612C196.32 117.612 197.094 116.532 197.094 114.609C197.094 112.642 196.32 111.561 195.001 111.561C193.692 111.561 192.919 112.642 192.919 114.609ZM204.733 118.75L202.253 110.435H203.766L205.086 114.826C205.211 115.281 205.336 115.747 205.461 116.475C205.598 115.736 205.723 115.303 205.871 114.826L207.179 110.435H208.783L210.068 114.826C210.204 115.292 210.33 115.77 210.466 116.475C210.625 115.701 210.739 115.258 210.864 114.837L212.206 110.435H213.685L211.16 118.75H209.749L207.975 112.698L206.166 118.75H204.733ZM216.235 110.435V118.75H214.779V110.435H216.235ZM218.078 118.75V110.435H221.388C223.026 110.435 224.027 111.288 224.027 112.676C224.027 113.597 223.618 114.257 222.833 114.587C223.709 114.871 224.152 115.531 224.152 116.498C224.152 117.92 223.163 118.75 221.445 118.75H218.078ZM221.263 111.72H219.534V113.984H221.297C222.094 113.984 222.537 113.563 222.537 112.824C222.537 112.107 222.082 111.72 221.263 111.72ZM221.388 115.212H219.534V117.465H221.388C222.207 117.465 222.662 117.066 222.662 116.316C222.662 115.61 222.196 115.212 221.388 115.212ZM226.049 118.887C225.548 118.887 225.127 118.477 225.127 117.988C225.127 117.487 225.548 117.078 226.049 117.078C226.549 117.078 226.97 117.487 226.97 117.988C226.97 118.477 226.549 118.887 226.049 118.887Z" fill="#262626"/>
<rect x="24" y="132.5" width="260" height="34.25" rx="3.25" fill="#C46969"/>
<path d="M155.117 149.867C155.117 152.753 153.219 154.781 150.489 154.781C147.772 154.781 145.9 152.766 145.9 149.867C145.9 146.981 147.785 144.953 150.502 144.953C153.219 144.953 155.117 146.968 155.117 149.867ZM153.362 149.867C153.362 147.839 152.244 146.552 150.502 146.552C148.76 146.552 147.642 147.839 147.642 149.867C147.642 151.895 148.76 153.182 150.502 153.182C152.244 153.182 153.362 151.869 153.362 149.867ZM158.03 154.625H156.457V144.953H158.03V150.894L160.526 148.203H162.515L160.071 150.751L162.463 154.625H160.643L158.966 151.921L158.03 152.896V154.625Z" fill="white"/>
</g>
</g>
</g>
<defs>
<filter id="filter0_d_54_11270" x="0" y="0" width="308" height="193" filterUnits="userSpaceOnUse" color-interpolation-filters="sRGB">
<feFlood flood-opacity="0" result="BackgroundImageFix"/>
<feColorMatrix in="SourceAlpha" type="matrix" values="0 0 0 0 0 0 0 0 0 0 0 0 0 0 0 0 0 0 127 0" result="hardAlpha"/>
<feOffset dy="2"/>
<feGaussianBlur stdDeviation="4"/>
<feComposite in2="hardAlpha" operator="out"/>
<feColorMatrix type="matrix" values="0 0 0 0 0 0 0 0 0 0 0 0 0 0 0 0 0 0 0.16 0"/>
<feBlend mode="normal" in2="BackgroundImageFix" result="effect1_dropShadow_54_11270"/>
<feBlend mode="normal" in="SourceGraphic" in2="effect1_dropShadow_54_11270" result="shape"/>
</filter>
<clipPath id="clip0_54_11270">
<rect x="8" y="6" width="292" height="177" rx="4" fill="white"/>
</clipPath>
<clipPath id="clip1_54_11270">
<rect width="292.5" height="520" fill="white" transform="translate(7.75 -337)"/>
</clipPath>
<clipPath id="clip2_54_11270">
<path d="M7.75 44C7.75 38.6152 12.1152 34.25 17.5 34.25H290.5C295.885 34.25 300.25 38.6152 300.25 44V183H7.75V44Z" fill="white"/>
</clipPath>
</defs>
</svg>
