<svg width="98" height="21" viewBox="0 0 98 21" fill="none" xmlns="http://www.w3.org/2000/svg">
<g clip-path="url(#clip0_6460_259)">
<path d="M9.69028 18.789C4.99463 18.789 1.26218 15.4177 1.26218 10.4813C1.26218 5.54481 4.99463 2.17358 9.69028 2.17358C13.3505 2.17358 15.3973 4.1 16.5291 6.09866L13.5913 7.54348C12.917 6.24314 11.4722 5.20769 9.69028 5.20769C6.89697 5.20769 4.7779 7.44716 4.7779 10.4813C4.7779 13.5154 6.89697 15.7548 9.69028 15.7548C11.4722 15.7548 12.917 14.7435 13.5913 13.4191L16.5291 14.8398C15.3732 16.8385 13.3505 18.789 9.69028 18.789ZM18.5644 18.5V2.43846H21.9838V18.5H18.5644ZM34.2506 18.5L31.0961 12.7448H28.5918V18.5H25.1724V2.43846H32.6854C36.0326 2.43846 38.0794 4.62976 38.0794 7.61572C38.0794 10.4572 36.2975 11.9742 34.5637 12.3836L38.1757 18.5H34.2506ZM34.5878 7.59164C34.5878 6.24314 33.5523 5.37625 32.1797 5.37625H28.5918V9.80702H32.1797C33.5523 9.80702 34.5878 8.94013 34.5878 7.59164Z" fill="white"/>
<g clip-path="url(#clip1_6460_259)">
<path d="M46.2535 2.21896C43.6197 2.65792 41.4084 4.22326 40.2075 6.50089C39.4703 7.90059 39.2136 9.15122 39.2716 11.0479C39.313 12.0997 39.3544 12.4393 39.5366 13.0604C39.8099 13.9881 40.3068 15.0482 40.7789 15.7025C41.2013 16.2905 42.1869 17.2596 42.7501 17.6405C43.4127 18.0961 44.6385 18.6427 45.5081 18.8746C46.2618 19.0817 46.4689 19.0982 47.8686 19.0982C49.2186 19.1065 49.4836 19.0817 50.0965 18.916C51.4713 18.5433 52.5894 17.889 53.5668 16.9117C54.0306 16.4396 54.9582 15.1973 54.9002 15.131C54.8836 15.1144 54.2128 14.7914 53.4011 14.4022L51.9434 13.6982L51.6287 14.1537C50.8253 15.3215 49.6244 15.9758 48.117 16.0586C46.6345 16.1415 45.4584 15.6776 44.3817 14.6009C43.2305 13.4497 42.7667 12.1577 42.8412 10.3273C42.9075 8.7371 43.3464 7.69354 44.39 6.6334C45.417 5.58984 46.7339 5.08462 48.1584 5.17572C49.5913 5.27511 50.7673 5.96254 51.8026 7.32083L51.9683 7.53617L53.4425 6.81561L54.9168 6.09506L54.5027 5.45732C53.3266 3.66007 51.4465 2.48399 49.2434 2.17754C48.3986 2.06159 47.0817 2.07816 46.2535 2.21896Z" fill="white"/>
<path d="M46.6091 6.41899C44.8616 7.03188 43.8677 8.53926 43.8594 10.6181C43.8512 12.5065 44.6877 13.9393 46.2116 14.6681C46.7748 14.9332 46.9156 14.9663 47.6776 14.9911C48.3153 15.016 48.6217 14.9911 48.9613 14.8835C49.9138 14.577 50.6426 13.931 51.1396 12.9454C51.2969 12.6224 51.4708 12.3574 51.5123 12.3574C51.5537 12.3574 52.1914 12.6555 52.9285 13.02C53.7071 13.4092 54.3034 13.6577 54.3448 13.6163C54.5104 13.4506 54.8334 12.2911 54.9163 11.554C55.0571 10.3531 54.8169 8.90368 54.2951 7.90152L54.1626 7.64477L53.4006 8.00091C52.9782 8.19968 52.3653 8.48956 52.0506 8.65521L51.4626 8.94509L51.1396 8.31564C50.7172 7.49569 50.1125 6.8828 49.3837 6.53495C48.8868 6.30304 48.7211 6.26991 47.9923 6.24507C47.2966 6.2285 47.073 6.25335 46.6091 6.41899Z" fill="white"/>
</g>
<path d="M57.0618 18.5V2.43846H60.4812V15.49H67.2719V18.5H57.0618ZM69.6664 18.5V2.43846H81.0322V5.37625H73.0858V8.86789H80.8637V11.8057H73.0858V15.5381H81.0322V18.5H69.6664ZM82.5977 16.2365L84.4759 13.6358C85.6077 14.8157 87.3655 15.803 89.5809 15.803C91.4592 15.803 92.3742 14.912 92.3742 13.997C92.3742 12.793 90.9776 12.3836 89.1234 11.9502C86.4987 11.3482 83.1274 10.6258 83.1274 7.03779C83.1274 4.36488 85.4391 2.19766 89.2197 2.19766C91.7722 2.19766 93.8913 2.96823 95.4806 4.43712L93.5783 6.94147C92.2779 5.73746 90.5441 5.18361 88.9789 5.18361C87.4378 5.18361 86.6191 5.85786 86.6191 6.82107C86.6191 7.90468 87.9676 8.2418 89.8217 8.67525C92.4706 9.27726 95.8418 10.0719 95.8418 13.6358C95.8418 16.5736 93.7468 18.789 89.4124 18.789C86.3301 18.789 84.1147 17.7535 82.5977 16.2365Z" fill="white"/>
</g>
<defs>
<clipPath id="clip0_6460_259">
<rect width="97.5" height="20" fill="white" transform="translate(0.25 0.5)"/>
</clipPath>
<clipPath id="clip1_6460_259">
<rect width="16.6667" height="18" fill="white" transform="translate(38.916 1.83398)"/>
</clipPath>
</defs>
</svg>
