<svg width="48" height="10" viewBox="0 0 48 10" fill="none" xmlns="http://www.w3.org/2000/svg">
<g clip-path="url(#clip0_60_12551)">
<path d="M3.97016 9.1445C1.62234 9.1445 -0.243878 7.45888 -0.243878 4.99066C-0.243878 2.52244 1.62234 0.83683 3.97016 0.83683C5.80025 0.83683 6.82366 1.80004 7.38954 2.79937L5.92065 3.52177C5.58353 2.87161 4.86112 2.35388 3.97016 2.35388C2.5735 2.35388 1.51398 3.47361 1.51398 4.99066C1.51398 6.50772 2.5735 7.62744 3.97016 7.62744C4.86112 7.62744 5.58353 7.12176 5.92065 6.45955L7.38954 7.16992C6.81162 8.16925 5.80025 9.1445 3.97016 9.1445ZM8.40721 9.00002V0.96927H10.1169V9.00002H8.40721ZM16.2503 9.00002L14.673 6.12243H13.4209V9.00002H11.7112V0.96927H15.4677C17.1413 0.96927 18.1647 2.06492 18.1647 3.55789C18.1647 4.97862 17.2737 5.73715 16.4068 5.94183L18.2128 9.00002H16.2503ZM16.4189 3.54585C16.4189 2.87161 15.9011 2.43816 15.2149 2.43816H13.4209V4.65354H15.2149C15.9011 4.65354 16.4189 4.2201 16.4189 3.54585Z" fill="white"/>
<g clip-path="url(#clip1_60_12551)">
<path d="M23.0008 0.859581C21.6839 1.07906 20.5782 1.86173 19.9777 3.00054C19.6092 3.70039 19.4808 4.3257 19.5098 5.27402C19.5305 5.79994 19.5512 5.96972 19.6423 6.28031C19.779 6.74411 20.0274 7.27418 20.2635 7.60133C20.4747 7.89535 20.9675 8.37986 21.2491 8.57035C21.5804 8.79811 22.1932 9.07142 22.6281 9.18738C23.0049 9.2909 23.1084 9.29919 23.8083 9.29919C24.4833 9.30333 24.6158 9.2909 24.9222 9.20808C25.6097 9.02173 26.1687 8.69458 26.6574 8.20593C26.8893 7.96989 27.3531 7.34872 27.3241 7.31559C27.3158 7.30731 26.9804 7.1458 26.5746 6.95117L25.8457 6.59918L25.6884 6.82694C25.2867 7.41084 24.6862 7.73798 23.9325 7.77939C23.1913 7.82081 22.6032 7.5889 22.0649 7.05056C21.4893 6.47494 21.2574 5.82893 21.2946 4.91374C21.3278 4.11864 21.5472 3.59686 22.069 3.0668C22.5825 2.54502 23.241 2.29241 23.9532 2.33796C24.6696 2.38765 25.2577 2.73137 25.7753 3.41051L25.8581 3.51818L26.5953 3.1579L27.3324 2.79763L27.1253 2.47876C26.5373 1.58014 25.5973 0.992096 24.4957 0.838875C24.0733 0.780899 23.4149 0.789182 23.0008 0.859581Z" fill="white"/>
<path d="M23.1796 2.95931C22.3058 3.26576 21.8089 4.01944 21.8047 5.05886C21.8006 6.00304 22.2188 6.71945 22.9808 7.08387C23.2624 7.21639 23.3328 7.23295 23.7138 7.24537C24.0326 7.2578 24.1859 7.24537 24.3556 7.19154C24.8319 7.03832 25.1963 6.71531 25.4448 6.22252C25.5234 6.06101 25.6104 5.9285 25.6311 5.9285C25.6518 5.9285 25.9707 6.07758 26.3392 6.25979C26.7285 6.45442 27.0267 6.57865 27.0474 6.55795C27.1302 6.47513 27.2917 5.89537 27.3331 5.52681C27.4035 4.92635 27.2834 4.20165 27.0225 3.70057L26.9563 3.5722L26.5753 3.75027C26.3641 3.84965 26.0577 3.99459 25.9003 4.07742L25.6063 4.22235L25.4448 3.90763C25.2336 3.49766 24.9313 3.19122 24.5668 3.01729C24.3184 2.90134 24.2356 2.88477 23.8711 2.87235C23.5233 2.86407 23.4115 2.87649 23.1796 2.95931Z" fill="white"/>
</g>
<path d="M28.906 9.00002V0.96927H30.6156V7.495H34.011V9.00002H28.906ZM35.2082 9.00002V0.96927H40.8911V2.43816H36.9179V4.18398H40.8068V5.65287H36.9179V7.51908H40.8911V9.00002H35.2082ZM41.6738 7.86825L42.6129 6.56792C43.1788 7.15788 44.0578 7.65152 45.1654 7.65152C46.1046 7.65152 46.5621 7.20604 46.5621 6.74852C46.5621 6.14651 45.8638 5.94183 44.9367 5.72511C43.6243 5.42411 41.9387 5.0629 41.9387 3.26893C41.9387 1.93248 43.0945 0.84887 44.9848 0.84887C46.2611 0.84887 47.3206 1.23415 48.1153 1.9686L47.1641 3.22077C46.5139 2.61876 45.647 2.34184 44.8644 2.34184C44.0939 2.34184 43.6845 2.67896 43.6845 3.16057C43.6845 3.70237 44.3588 3.87093 45.2858 4.08766C46.6103 4.38866 48.2959 4.78598 48.2959 6.56792C48.2959 8.03681 47.2484 9.1445 45.0812 9.1445C43.54 9.1445 42.4323 8.62677 41.6738 7.86825Z" fill="white"/>
</g>
<defs>
<clipPath id="clip0_60_12551">
<rect width="48" height="9.99997" fill="white"/>
</clipPath>
<clipPath id="clip1_60_12551">
<rect width="8.33331" height="8.99997" fill="white" transform="translate(19.333 0.666687)"/>
</clipPath>
</defs>
</svg>
